<?xml version="1.0" encoding="UTF-8" standalone="no"?>
<svg
   xmlns:dc="http://purl.org/dc/elements/1.1/"
   xmlns:cc="http://creativecommons.org/ns#"
   xmlns:rdf="http://www.w3.org/1999/02/22-rdf-syntax-ns#"
   xmlns:svg="http://www.w3.org/2000/svg"
   xmlns="http://www.w3.org/2000/svg"
   version="1.1"
   id="Bike"
   viewBox="0 0 744.09449 90"
   width="150"
   height="90">
  <defs
     id="defs8111" />
  <metadata
     id="metadata8114">
    <rdf:RDF>
      <cc:Work
         rdf:about="">
        <dc:format>image/svg+xml</dc:format>
        <dc:type
           rdf:resource="http://purl.org/dc/dcmitype/StillImage" />
        <dc:title></dc:title>
      </cc:Work>
    </rdf:RDF>
  </metadata>
  <g
							transform="translate(0,-789.06889)" id="g5">
							<path
							style="fill:#000000;fill-opacity:1"
							d="m 186.11282,614.22417 c -2.2637,0.0117 -3.47175,0.39754 -4.56458,1.16299 -1.573,1.10173 -1.73221,1.70056 -1.4297,5.34831 0.40938,4.93726 1.5905,6.28764 5.9839,6.84316 1.8305,0.23145 3.8395,0.8619 4.46529,1.40151 1.47354,1.2706 7.99418,2.9101 9.41212,2.366 1.17369,-0.45038 8.69355,3.12131 13.80634,6.55722 1.71461,1.15226 4.44535,2.29833 6.06832,2.54822 4.2363,0.65228 5.45557,1.46671 6.94686,4.63717 1.15146,2.44803 1.68411,2.82793 4.10529,2.92601 4.09688,0.16595 7.26128,2.35585 8.5662,5.92906 3.71124,10.16239 20.13598,66.77304 19.44055,67.00488 -0.44852,0.14948 -1.51533,0.8421 -2.37195,1.5393 -1.36977,1.11487 -1.45382,1.56523 -0.69482,3.73344 0.82544,2.35814 1.44593,2.79643 3.56453,2.52006 0.75869,-0.0989 2.45933,2.75762 2.45933,4.13049 0,0.16192 -1.51071,0.96257 -3.35707,1.77932 -4.02534,1.78058 -9.29309,6.4994 -13.81817,12.37961 -1.82535,2.37193 -3.97156,4.52034 -4.76902,4.77347 -0.85025,0.26984 -1.9226,1.84696 -2.59269,3.81345 -0.62852,1.84462 -2.22343,4.92632 -3.54526,6.8476 -2.26644,3.29412 -2.48172,3.42173 -3.78087,2.24599 -0.7876,-0.71276 -2.28844,-1.14094 -3.50385,-1.00003 -1.67083,0.1937 -2.22685,0.73471 -2.59261,2.52303 -0.54737,2.676 -6.04389,7.77594 -5.89947,8.78099 l 3.45052,24.01402 c 0.0903,0.62853 -0.30046,1.99056 -1.17339,3.10528 -0.873,1.11471 -9.85366,13.29105 -19.95764,27.05856 -10.10391,13.7675 -18.65304,25.35549 -18.99757,25.75183 l -8.75727,12.01816 c -2.56113,3.69659 -8.39878,11.73955 -8.39878,11.73955 -1.12689,1.46375 -2.20098,1.76998 -7.16912,2.04154 l -15.38258,4.20163 c -2.31435,1.59254 -4.09249,4.28287 -5.79875,6.16905 -1.09871,1.88529 -2.3744,2.07595 -3.34971,2.71565 -13.94847,2.04268 -28.45108,9.69061 -24.94149,24.65551 2.58856,8.2665 7.16843,13.96737 13.50119,18.76204 0.9217,0.54713 1.81724,0.96373 2.68008,1.2104 0.52733,0.69293 0.90812,1.07258 0.90812,1.07258 4.15474,1.63769 16.5832,5.33671 18.19169,3.39864 0.75164,-0.90562 0.65992,-1.42158 -0.4697,-2.66968 -2.03629,-2.25014 -0.62844,-4.19655 2.79121,-3.85939 0,0 8.18571,-1.24749 8.54397,9.90252 1.35855,7.42589 1.05528,14.41955 -0.75119,17.31458 -0.57656,0.92401 -1.0489,2.81058 -1.0489,4.19269 -3.73095,4.81154 -3.90845,7.41335 4.68907,12.65658 47.08817,1.20128 94.36466,0.85204 141.51068,1.06818 43.73856,-0.9239 86.49807,-14.5691 76.34737,-61.81355 -0.51865,-1.84342 -1.5177,-3.63399 -2.18824,-5.1913 47.52674,-60.02324 57.51048,-68.49775 116.55593,-136.55794 10.66515,-12.29944 15.17444,-16.67926 17.13678,-16.64937 0.94499,0.0144 1.14229,2.4844 2.9216,6.93205 15.20918,37.31657 42.79479,97.59093 66.44485,138.63653 27.03021,-12.53123 -33.33563,-97.40848 -41.87673,-137.60094 6.62593,-2.92043 12.34935,-3.65013 18.97534,-6.57056 -1.16511,0.0176 -2.4293,-6.96034 -1.90378,-8.39136 0.88097,-2.39901 -2.45638,-3.86918 -6.34382,-2.79414 -1.54196,0.42641 -3.9143,-6.97961 -3.34979,-10.45809 0.38951,-2.40005 0.16726,-3.01049 -1.6015,-4.42086 -1.81868,-1.4502 -2.23193,-2.69257 -3.63122,-10.89809 l -1.57928,-9.26249 c 4.21773,-4.80609 8.99983,-9.10515 13.97072,-13.00629 8.57052,-5.00041 19.09572,-17.2556 22.98293,-26.76225 2.63283,-7.34472 2.49554,-11.84971 2.87563,-19.49389 4.75818,-3.3258 9.84176,-6.41434 14.94855,-8.95137 2.20584,0 3.66011,2.43192 4.23122,7.07576 0.4072,6.13085 -2.33998,7.07306 -5.57201,11.88775 -0.81778,2.19495 0.51126,8.23016 2.79711,12.70406 1.40907,2.75788 8.56369,10.34965 11.08182,11.75886 3.25445,1.82129 4.67405,-2.17629 1.84303,-5.18978 -2.7758,-2.95467 -3.89609,-19.80332 -2.11412,-31.78461 0.72219,-4.85551 0.65658,-6.5616 -0.42222,-11.00031 -1.38736,-5.70782 -1.25424,-6.32916 2.38819,-11.13662 1.73441,-2.28912 1.76626,-2.5259 0.63999,-4.70384 -0.6522,-1.26119 -1.18523,-3.10063 -1.18523,-4.08752 0,-3.63578 -10.37712,-7.12709 -15.39745,-5.18089 -1.38486,0.53685 -2.51009,1.81227 -3.23715,3.67121 -12.79942,18.2844 -24.40154,13.63379 -43.98493,15.01229 -1.93702,0.25317 -4.14012,-0.0438 -5.95721,-0.80298 -2.64685,-1.10591 -4.64112,-1.08546 -8.86839,0.0904 -0.66675,0.18548 -1.5745,1.12957 -2.01635,2.09932 -0.85541,1.87742 -0.98846,1.91661 -17.63166,5.04903 -9.56846,1.80088 -12.04282,1.87272 -12.62105,0.36595 -0.59264,-1.54436 -2.13309,-1.43546 -8.05213,0.5689 -4.55852,1.54366 -5.21337,2.03283 -6.85052,5.12015 -2.10928,3.97756 -1.95628,4.93066 1.04299,6.48167 2.25278,1.16497 2.85636,3.18526 1.38964,4.65197 -0.44981,0.44981 -0.70582,1.7844 -0.56891,2.96602 0.18182,1.56953 0.75983,2.26535 2.14523,2.58229 2.64776,0.60573 5.09117,7.60123 3.86234,11.0581 -0.48781,3.91836 -1.34065,7.83007 -2.74971,10.83586 -2.97894,3.54025 -2.90119,3.5257 -31.07497,6.16906 -41.52689,3.8962 -102.2475,15.06759 -151.20429,27.81857 l -19.21982,5.00459 -1.94376,-1.45041 c -1.07613,-0.80345 -2.37377,-2.9077 -2.90672,-4.71273 -0.52947,-1.79328 -1.45435,-3.82981 -2.0564,-4.52605 -1.17013,-1.35309 -21.02727,-67.30154 -21.02727,-69.83458 0,-0.82901 0.37639,-1.73846 0.83561,-2.02228 0.46863,-0.28952 0.64696,-1.45413 0.40741,-2.65193 -0.58461,-2.92301 1.16793,-4.67643 6.70838,-6.71426 2.49552,-0.91787 5.05559,-2.1111 5.68905,-2.65194 0.63353,-0.54084 3.11988,-1.78221 5.52604,-2.75859 4.2482,-1.72385 4.47887,-1.7398 7.96467,-0.52447 2.98448,1.04053 4.90427,1.14254 11.38107,0.60447 4.28476,-0.35596 8.29555,-1.06554 8.91284,-1.57783 3.08749,-2.56239 -0.39255,-7.31419 -7.29207,-9.95732 -5.81816,-2.22888 -18.0811,-2.84626 -39.37446,-1.98228 -21.13877,0.85769 -45.66532,0.30154 -57.26978,-1.2978 -5.31911,-0.7331 -8.63879,-1.09591 -10.9025,-1.08452 z m 75.99177,12.14108 c 3.77525,-0.0525 5.75376,0.1936 5.45497,0.67706 -0.2579,0.4172 -1.21632,0.76215 -2.13044,0.76595 -2.35989,0.0105 -9.56541,3.50161 -10.0995,4.89347 -0.4505,1.17397 -2.54438,1.65936 -2.5823,0.59854 -0.0117,-0.3129 -1.38138,-1.40952 -3.04456,-2.43562 -1.66317,-1.02613 -2.90725,-2.22082 -2.76449,-2.6549 0.30622,-0.93112 6.86941,-1.72919 15.16632,-1.8445 z m -20.90431,2.1971 c 2.86705,-0.007 1.95484,2.0326 -1.13781,2.54378 -4.08807,0.67572 -6.25796,0.59433 -6.25796,-0.23556 0,-0.81065 4.77624,-2.3014 7.39577,-2.30822 z m -13.35591,3.0312 c 0.51376,0 -0.0471,1.02403 -1.24599,2.27562 -1.72802,1.80369 -2.81964,2.27295 -5.26236,2.26377 -2.86532,-0.0105 -5.77409,-1.02665 -4.9557,-1.73043 0.47501,-0.40848 10.27215,-2.80896 11.46405,-2.80896 z m 317.55132,19.9265 c 10.61304,1.67574 14.80617,10.68094 11.86259,19.72945 -1.07826,2.59491 -2.61431,5.3907 -3.41343,6.21352 -1.43555,1.47846 -1.45344,1.43727 -1.45344,-3.52307 -0.53444,-8.84855 -3.56069,-15.19596 -7.5854,-22.28657 0,-0.11531 0.21845,-0.15512 0.58968,-0.13333 z m -20.78727,5.26829 c 2.8182,2.51716 5.40229,2.78503 8.73361,2.43859 0.33172,0.20501 -0.0615,3.8637 -0.87414,8.1306 -1.72415,9.04831 -2.76086,10.68227 -11.03144,17.38865 -3.04942,2.4727 -6.00947,4.49643 -6.57648,4.49643 -1.08645,0 -2.16844,-1.60896 -6.89354,-10.2403 -1.59869,-2.92037 -3.22295,-5.43778 -3.60898,-5.59423 -2.60778,-1.05684 -6.72202,-10.12272 -5.25646,-11.58256 8.9133,-2.28319 15.86766,-3.3097 25.50743,-5.03718 z m 13.76334,1.18375 c 0.19412,0.0847 0.2623,0.82056 0.0933,2.34821 -0.20169,1.8236 -0.76044,3.70099 -1.24301,4.17196 -0.66258,0.64664 -0.74671,0.11333 -0.34226,-2.17783 0.4973,-2.81728 1.16846,-4.48363 1.4919,-4.34234 z m 4.95866,1.52003 c 0.77781,0.13484 1.72514,1.88465 3.02384,5.35572 4.94958,14.47379 -1.11453,24.75945 -13.15149,29.70306 l 0.43555,-8.83876 c 0.3509,-7.12436 0.72281,-9.22886 1.91858,-10.84624 2.24778,-3.04026 5.19721,-9.15221 6.18241,-12.81074 0.48356,-1.79609 0.98617,-2.6679 1.59111,-2.56304 z m -13.36632,23.04067 c 0.12121,0.14418 0.0539,3.22901 -0.14814,6.85649 -0.3638,6.53447 -0.38754,6.60281 -2.66225,7.39576 -1.26275,0.44019 -3.4459,0.8015 -4.85056,0.8015 -2.17474,0 -2.74265,-0.39643 -3.82677,-2.6697 -1.24514,-2.61121 -1.23452,-2.69685 0.46963,-3.89049 0.95833,-0.67121 3.77972,-2.916 6.26986,-4.98828 2.49005,-2.07228 4.62709,-3.64948 4.74823,-3.50528 z m -0.26518,28.87637 c 1.59569,3.92828 -2.62919,5.23771 -6.33647,6.08907 -0.20988,-0.7301 -0.6261,-1.92024 -0.92443,-2.64453 2.16683,-3.17843 3.60347,-2.73294 7.2609,-3.44454 z m -59.82243,0.31556 c 5.98579,-0.0422 6.9631,0.25328 10.16474,1.94228 7.07871,3.73424 11.00361,10.25926 11.05065,18.3709 0.044,7.56054 -2.70238,12.21325 -15.27154,25.8837 -39.14598,42.56538 -72.00178,79.50708 -112.61948,124.74876 -5.75209,6.46655 -10.6807,11.82875 -10.95142,11.91735 -0.27073,0.0887 -1.34528,-0.32617 -2.38827,-0.92147 -5.39724,-3.00246 -12.85862,-2.74395 -19.08791,-3.58532 -1.96295,0.0622 -2.92971,-0.28839 -3.28903,-1.19553 0,0 -32.68732,-92.85743 -42.09898,-140.64259 0,-4.12826 2.43491,-5.74821 13.05228,-8.68765 55.12961,-13.09606 111.83705,-26.36418 168.54552,-27.79487 1.08061,-0.0167 2.03833,-0.0294 2.89344,-0.0355 z m 60.67435,7.85949 c 0.19683,0 0.79403,2.47474 1.32592,5.49942 1.27755,3.9809 2.90403,10.04019 3.4475,11.94553 -1.32843,1.46792 -1.30728,1.73346 0.64149,8.2269 1.10754,3.69047 2.01339,6.90026 2.01339,7.13205 0,0.23179 -1.20487,1.13138 -2.67712,2.00005 l -2.67711,1.5808 -0.63854,-1.69487 c -1.08896,-2.88777 -6.93685,-28.14928 -6.91865,-29.88826 1.07187,-2.80089 2.9845,-3.38015 5.48312,-4.80162 z m -268.94697,17.61235 c 0.23933,-4.8e-4 0.45619,0.0347 0.64742,0.10819 1.66151,0.63756 0.46666,3.16663 -5.53643,11.71885 -2.83716,4.04188 -6.64997,9.90992 -8.4729,13.0389 -1.82284,3.12898 -4.15126,6.79842 -5.17347,8.1543 -1.0222,1.35589 -2.07445,2.46382 -2.33782,2.4623 -0.26336,-10e-4 -1.36841,-1.11076 -2.45638,-2.46526 l -1.97782,-2.4623 4.34235,-6.45944 c 2.38894,-3.55288 5.0439,-7.99644 5.89938,-9.87435 2.83482,-6.22268 11.47604,-14.2139 15.06567,-14.22119 z m 4.11714,16.52196 c 1.61008,0 2.4591,0.48557 2.98531,1.70671 l 39.40404,137.34616 -127.87622,-0.24001 c -4.95964,-0.46713 -4.98029,-1.87551 -7.11283,-5.7498 0,-0.19403 2.13339,-3.53419 4.74087,-7.4224 l 12.70555,-18.22719 c 0,-0.69034 37.38162,-56.16174 38.23521,-56.73795 l 14.80783,-22.03174 c 0.80398,-0.56316 1.89832,-2.03316 2.43265,-3.26676 0.53431,-1.23358 4.67495,-7.44703 9.20026,-13.80928 7.44666,-10.46945 8.44072,-11.56774 10.47733,-11.56774 z m -133.38748,141.81441 -0.70082,8.33363 c 1.80272,6.94905 0.97591,8.64001 -4.85495,12.73073 -8.17448,8.09279 -6.68972,15.27245 -4.61193,19.36052 -6.23278,-4.20366 -11.299,-11.36863 -13.01078,-17.87462 -1.92624,-15.61518 11.84357,-20.89548 23.17848,-22.55026 z m 170.88637,0.90372 c -5.59454,6.09192 -9.73601,12.48338 -11.69518,20.59915 -39.54546,-4.71707 -73.61692,-11.80451 -108.61643,-17.57682 -5.19432,-1.77498 -3.25785,-2.47413 -3.25785,-2.47413 43.04381,-0.22589 80.52518,-0.46264 123.56946,-0.5482 z m 11.05512,11.34557 c 0.58172,-0.0877 0.6933,0.35377 0.6933,1.43705 -0.91036,1.55535 -1.37328,3.11628 -2.14963,4.55124 -2.10388,0 -2.24338,-4.1769 -0.17635,-5.28308 0.76475,-0.4093 1.2836,-0.65257 1.63268,-0.70521 z m -121.31015,4.7527 c 29.87055,4.81362 94.85014,21.31916 94.85014,21.31916 2.63024,23.39891 14.09224,33.46791 29.42893,42.37891 0,1.31189 -2.56796,1.88027 -8.72322,1.93051 -2.08598,0.0163 -7.03545,0.12734 -10.99883,0.24581 l -125.288,-0.4963 c -3.35795,-1.73198 -2.60295,-1.80277 -0.97927,-4.97639 1.25485,-1.52451 1.16246,-7.35435 -0.13335,-8.42989 -0.63454,-1.2576 -1.57786,-2.44926 -2.17194,-3.43266 -1.91083,-4.35927 0.22915,-7.69327 1.51564,-12.41072 0.16614,-2.0083 1.02244,-3.93376 1.61926,-5.68904 1.40747,-2.57138 -0.71272,-17.95207 -1.90963,-20.11315 10.95802,8.45492 15.19357,-6.88398 22.79027,-10.32624 z m 115.80626,0.23849 c 1.47352,2.63852 -0.88035,3.29482 -2.12748,4.7898 -2.06248,0 -1.93982,-1.63321 0.28005,-3.71859 0.79047,-0.74268 1.42317,-1.08463 1.84743,-1.07121 z m 54.51712,17.0909 c 0.85797,0.0561 1.74372,0.73176 1.74372,1.70672 0,0.64414 -0.65621,1.16299 -1.47263,1.16299 -1.80654,0 -2.42793,-0.87529 -1.58815,-2.23413 0.29727,-0.48099 0.80223,-0.66949 1.31706,-0.63558 z m -60.45657,12.70555 c -1.19238,2.09915 -2.57887,-1.05347 -2.85484,-1.1662 1.05133,-1.00019 2.49595,1.0196 2.85484,1.1662 z m -1.27109,1.54522 c 4.04056,3.39314 7.21884,9.00877 11.13211,13.27149 -0.53439,7.30207 -14.19426,-10.68313 -12.12921,-12.32627 -0.007,-0.67518 0.44898,-0.96737 0.9971,-0.94522 z m 10.78994,0.27261 c 6.41224,0.76987 6.55327,3.81003 6.70238,6.95726 -0.67382,1.02828 -1.63359,1.86965 -2.13339,1.86965 -1.74913,-0.16885 -9.13541,-8.82706 -4.56899,-8.82691 z m 47.81465,4.27566 c 1.23036,0 1.8412,0.35288 1.643,0.94819 -0.36508,1.09661 -2.2908,1.62782 -3.07118,0.84744 -1.06666,-1.06666 -0.4863,-1.79563 1.42818,-1.79563 z m -31.28387,2.32152 c 4.91632,-0.39975 10.59629,0.61443 14.273,1.97638 1.12356,7.67582 -9.31637,6.238 -15.85971,5.81793 -1.25974,-3.30679 0.0407,-4.52951 1.58671,-7.79431 z m 16.38417,11.16329 c 4.16864,0.61184 2.09949,3.29205 -3.92158,5.08013 -4.67018,1.3869 -13.55838,1.53399 -14.8463,0.24593 -2.07195,-2.07187 -0.43122,-4.30318 2.03259,-2.76444 2.68242,1.64264 13.14156,-1.5266 16.73529,-2.56162 z"
							id="path8075" />
							<g
							transform="matrix(4.9634029,0,0,4.9634033,-2731.7881,-3543.4369)"
							id="Wheel1">
							<path
								id="path4733"
								d="m 664.41966,924.16755 c -4.66124,-0.55714 -9.8957,-2.58352 -13.70203,-5.30436 -6.09704,-4.35831 -9.96751,-10.10287 -11.83958,-17.57236 -0.59293,-2.36576 -0.75283,-8.52572 -0.29155,-11.23184 2.04052,-11.9709 11.41547,-21.56002 23.62334,-24.16299 2.45286,-0.523 9.22333,-0.51604 11.65179,0.012 2.71965,0.59133 5.13499,1.47395 7.83482,2.86302 3.18327,1.6378 5.40534,3.30029 7.96973,5.96273 4.12848,4.28634 6.83136,9.5594 7.82312,15.2622 0.50515,2.90464 0.29261,9.22121 -0.39776,11.82175 -0.69944,2.63467 -1.3357,4.26496 -2.64644,6.78098 -3.98139,7.64245 -11.43335,13.25367 -20.18169,15.19652 -1.46308,0.32493 -8.13054,0.57715 -9.84375,0.37238 z m 6.42767,-5.04747 c -4e-4,-0.30385 -0.35153,-3.03851 -0.78007,-6.07701 -0.42855,-3.03851 -1.03597,-7.57604 -1.34984,-10.08341 -0.31387,-2.50737 -0.596,-4.53353 -0.62696,-4.50258 -0.0309,0.031 -0.46647,3.70968 -0.96781,8.17493 -0.50134,4.46526 -0.99641,8.70626 -1.10015,9.42445 -0.10375,0.71819 -0.19042,1.82561 -0.19261,2.46094 l -0.004,1.15513 2.51116,0 2.51116,0 -10e-4,-0.55245 z m -5.65446,-1.40625 c 0.28511,-2.24643 2.24336,-19.71849 2.23054,-19.90143 -0.01,-0.14202 -7.66032,19.00432 -7.90705,19.78875 -0.17855,0.56763 0.17804,0.75911 2.56066,1.375 2.96512,0.76646 2.85258,0.81206 3.11585,-1.26232 z m 8.9701,1.27084 c 2.35974,-0.63423 2.91223,-0.85502 2.91633,-1.16543 0.003,-0.26255 -8.2711,-20.08836 -8.34526,-19.9952 -0.0534,0.0671 2.67662,20.6018 2.81789,21.19559 0.13521,0.56836 0.37844,0.56511 2.61104,-0.035 z m -15.18819,-1.88303 c 0.21405,-0.41957 0.97651,-2.29541 1.69435,-4.16853 0.71784,-1.87312 2.35258,-6.0576 3.63276,-9.29886 1.28018,-3.24125 2.32759,-5.94954 2.32759,-6.01842 0,-0.0689 -0.61021,0.72024 -1.35602,1.75359 -0.74582,1.03335 -3.63734,4.91687 -6.4256,8.63003 -2.78826,3.71316 -5.0709,6.89063 -5.07254,7.06103 -0.003,0.32174 1.70028,1.40018 3.61309,2.28753 0.6077,0.28191 1.12567,0.51344 1.15105,0.51452 0.0254,10e-4 0.22128,-0.34132 0.43532,-0.76089 z m 19.83447,0.26281 c 1.5048,-0.62875 3.89166,-2.18741 3.89166,-2.54134 0,-0.19423 -0.74255,-1.28441 -1.65011,-2.42262 -1.53846,-1.92945 -10.14945,-12.984 -11.158,-14.32433 -0.41359,-0.54966 -0.43735,-0.5584 -0.27186,-0.10006 0.0997,0.27623 1.3739,3.34989 2.83146,6.83036 1.45756,3.48047 3.09801,7.44676 3.64544,8.81398 1.03712,2.59024 1.71725,4.04316 1.89262,4.04316 0.0566,0 0.42501,-0.13462 0.81879,-0.29915 z m -23.79297,-5.24782 c 1.02845,-1.39346 3.98225,-5.3757 6.564,-8.84942 2.58176,-3.47372 4.65095,-6.35901 4.5982,-6.41175 -0.0528,-0.0527 -1.80349,1.29436 -3.89053,2.99359 -2.08705,1.69922 -5.86613,4.7528 -8.39796,6.78573 -2.53183,2.03293 -4.69767,3.84915 -4.81298,4.03604 -0.15977,0.25894 -0.11605,0.44483 0.18369,0.78116 0.66838,0.74998 3.49898,3.19823 3.6977,3.19823 0.10339,0 1.02944,-1.14011 2.05788,-2.53358 z m 30.94914,0.13569 c 0.85631,-0.83055 1.55692,-1.5765 1.55692,-1.65765 0,-0.25124 -0.77855,-0.89992 -4.52009,-3.76607 -1.98884,-1.52352 -5.73144,-4.41133 -8.3169,-6.41736 -2.58545,-2.00603 -4.7412,-3.60694 -4.79056,-3.55759 -0.0977,0.0977 12.08332,15.87913 13.0756,16.94035 0.71274,0.76226 0.51442,0.86434 2.99503,-1.54168 z m -35.89665,-3.39283 c 0.76632,-0.6436 4.28616,-3.50065 7.82187,-6.349 3.53572,-2.84835 6.51898,-5.26551 6.62947,-5.37147 0.28599,-0.27427 0.0892,-0.19411 -8.44074,3.43752 -8.88569,3.7831 -10.74453,4.62727 -10.74453,4.87945 0,0.24872 1.42216,2.66065 2.19338,3.71989 0.3419,0.46959 0.7399,0.85379 0.88444,0.85379 0.14454,0 0.88979,-0.52658 1.65611,-1.17018 z m 39.84351,-1.72945 c 1.18886,-2.07786 1.19837,-2.16522 0.28407,-2.60974 -1.00064,-0.48651 -18.60338,-7.55858 -18.65818,-7.49611 -0.0231,0.0263 1.41682,1.17216 3.19986,2.54626 1.78305,1.3741 4.98854,3.86015 7.12332,5.52456 2.13477,1.6644 4.39294,3.42005 5.01813,3.90143 l 1.13671,0.87526 0.52031,-0.62325 c 0.28617,-0.34278 0.90527,-1.29607 1.37578,-2.11841 z m -41.81936,-3.79317 c 1.0796,-0.49355 5.39817,-2.36067 9.59683,-4.14915 4.19866,-1.78848 7.7183,-3.33365 7.82143,-3.43371 0.42075,-0.40825 -0.17263,-0.41587 -2.13632,-0.0274 -1.13797,0.2251 -5.59471,0.96598 -9.90386,1.64641 -4.30915,0.68043 -8.33203,1.34309 -8.93973,1.47259 -1.08131,0.23042 -1.10382,0.24939 -1.05393,0.88832 0.0435,0.55718 1.14293,4.30465 1.38068,4.70621 0.12323,0.20812 1.08076,-0.11844 3.2349,-1.10323 z m 44.03553,-1.5197 c 0.33941,-1.14691 0.61711,-2.33832 0.61711,-2.64759 0,-0.67471 -0.0266,-0.68109 -6.22768,-1.49238 -3.74073,-0.4894 -13.43016,-1.9022 -15.34505,-2.23742 -1.66661,-0.29177 -0.54499,0.43767 2.60351,1.69316 1.75952,0.70161 5.95638,2.40539 9.32636,3.78617 7.41335,3.03745 8.09832,3.29584 8.2724,3.12053 0.0749,-0.0755 0.41394,-1.07557 0.75335,-2.22247 z m -37.77202,-5.24977 c 5.3994,-0.9165 8.57433,-1.53704 8.33706,-1.62947 -0.21076,-0.0821 -3.59247,-0.52086 -7.5149,-0.97498 -3.92243,-0.45413 -7.96694,-0.95738 -8.98779,-1.11832 -2.38788,-0.37647 -2.99248,-0.37164 -3.14473,0.0251 -0.15815,0.41212 -0.15335,2.23234 0.0105,3.96699 l 0.12954,1.37182 1.22505,-0.0805 c 0.67379,-0.0443 5.14918,-0.74658 9.94532,-1.56068 z m 38.66535,0.58002 c 0.16175,-0.80872 0.15786,-3.95206 -0.006,-4.5627 -0.11313,-0.42253 -0.21839,-0.46139 -1.05195,-0.38833 -1.82525,0.15997 -18.70524,2.66624 -18.70524,2.77727 0,0.0624 3.59347,0.63313 7.98549,1.26837 4.39202,0.63523 8.3019,1.23081 8.68862,1.32351 0.38671,0.0927 1.21163,0.1778 1.83314,0.18911 1.11074,0.0202 1.13217,0.01 1.25558,-0.60723 z m -27.19587,-2.76279 c 0,-0.30173 -0.44696,-0.53999 -2.10937,-1.12444 -0.88393,-0.31076 -5.46654,-1.99846 -10.18357,-3.75045 -4.71703,-1.75198 -8.66893,-3.18542 -8.78199,-3.18542 -0.11307,0 -0.30503,0.18582 -0.42658,0.41295 -0.32888,0.61452 -1.19259,4.5942 -1.06771,4.91964 0.12497,0.32567 0.53993,0.40489 3.68529,0.70362 3.34828,0.318 15.81244,1.7839 16.875,1.98466 1.24147,0.23455 2.00893,0.24962 2.00893,0.0394 z m 10.84822,-0.71851 c 2.70703,-0.39769 7.33997,-1.03163 10.29542,-1.40876 2.95545,-0.37714 5.4641,-0.74166 5.57477,-0.81007 0.26101,-0.16131 0.25447,-0.99795 -0.0157,-2.00913 -0.73333,-2.74467 -1.02228,-3.51563 -1.31763,-3.51563 -0.17172,0 -3.58055,1.29877 -7.5752,2.88615 -3.99465,1.58738 -8.52862,3.36772 -10.07549,3.9563 -1.54688,0.58858 -2.92551,1.15412 -3.06362,1.25675 -0.4925,0.36598 -0.25517,0.5927 0.50223,0.47978 0.41434,-0.0618 2.9682,-0.43771 5.67523,-0.83539 z m -10.24554,-0.47566 c 0,-0.0908 -0.2486,-0.48533 -0.55245,-0.87671 -1.12916,-1.45444 -13.53365,-16.42673 -13.68908,-16.5228 -0.0888,-0.0549 -1.04821,0.80277 -2.13201,1.90589 l -1.97054,2.00568 0.48342,0.51974 c 0.26589,0.28586 0.89024,0.7973 1.38745,1.13655 1.11882,0.76337 11.66279,8.55271 14.26339,10.53705 1.87171,1.42818 2.20982,1.62626 2.20982,1.2946 z m 4.72389,-0.80629 c 1.04706,-0.84586 12.16062,-9.43719 15.12267,-11.69057 0.5847,-0.44481 1.11871,-0.95369 1.18669,-1.13085 0.0869,-0.22657 -0.45097,-0.88835 -1.81366,-2.23127 -1.65011,-1.62618 -1.98296,-1.87124 -2.24558,-1.65329 -0.25875,0.21474 -11.4935,14.33985 -13.20727,16.6051 -1.04786,1.38505 -0.68041,1.42378 0.95715,0.10088 z m -7.54356,-0.10656 c -0.16179,-0.15091 -2.92813,-2.22016 -6.14741,-4.59834 -3.21928,-2.37817 -6.55635,-4.87834 -7.4157,-5.55593 -0.85935,-0.67759 -1.7738,-1.28503 -2.03212,-1.34986 -0.60566,-0.15201 -0.96708,0.28485 -2.21627,2.67889 -0.85403,1.63672 -0.93021,1.88243 -0.66347,2.13983 0.16573,0.15993 1.97377,0.88877 4.01785,1.61964 2.04409,0.73087 6.11217,2.22423 9.04018,3.31857 2.92802,1.09434 5.41084,1.99688 5.51738,2.00565 0.10655,0.009 0.0614,-0.10754 -0.10044,-0.25845 z m 2.93537,-5.88483 c -0.94546,-5.8033 -2.52641,-15.72979 -2.52641,-15.86285 0,-0.29119 -2.81353,0.32809 -4.77858,1.0518 -0.73552,0.27089 -0.84217,0.38028 -0.73098,0.74974 0.0716,0.23792 0.97767,2.35001 2.01349,4.69353 1.03582,2.34352 2.88079,6.5924 4.09992,9.44196 2.83906,6.6359 2.66157,6.25903 2.75622,5.85216 0.0426,-0.18332 -0.3325,-2.85018 -0.83366,-5.92634 z m 3.697,2.64359 c 0.69683,-1.76786 2.51969,-6.22651 4.05079,-9.90812 1.53111,-3.68161 2.78383,-6.86464 2.78383,-7.0734 0,-0.29223 -0.30331,-0.47325 -1.31824,-0.78673 -2.15255,-0.66486 -3.90606,-0.93674 -4.09279,-0.6346 -0.0866,0.14013 -0.40346,2.07806 -0.70413,4.3065 -0.30066,2.22844 -0.94619,6.8805 -1.4345,10.33792 -0.90794,6.42851 -1.01557,7.49956 -0.71988,7.16356 0.0924,-0.10496 0.73808,-1.63727 1.43492,-3.40513 z m 9.90241,0.43441 c 4.33448,-1.69466 8.4431,-3.28668 9.13026,-3.5378 1.67734,-0.61299 1.81721,-0.80828 1.34043,-1.87157 -0.60434,-1.34773 -2.25288,-3.76388 -2.56811,-3.76388 -0.15826,0 -0.7847,0.38421 -1.39209,0.8538 -6.3254,4.89032 -14.61464,11.40067 -14.51581,11.40067 0.0684,0 3.67085,-1.38655 8.00532,-3.08122 z m -18.14684,-7.38194 c -2.10596,-4.90765 -3.96472,-9.13167 -4.13057,-9.3867 l -0.30156,-0.46369 -1.34374,0.73804 c -1.67851,0.92191 -3.45311,2.09192 -3.45311,2.27667 0,0.0769 2.50865,3.16943 5.57477,6.87233 3.06613,3.70289 5.98159,7.23644 6.4788,7.85232 0.49721,0.61588 0.92661,1.10049 0.95422,1.07691 0.0276,-0.0236 -1.67285,-4.05823 -3.77881,-8.96588 z m 14.51096,1.12099 c 2.7985,-3.53608 5.39597,-6.8212 5.77215,-7.30028 l 0.68396,-0.87105 -0.58352,-0.47224 c -0.32093,-0.25974 -1.44937,-0.92748 -2.50763,-1.48389 l -1.92411,-1.01164 -0.52967,1.15023 c -0.29132,0.63263 -1.74697,4.17869 -3.23478,7.88014 -1.4878,3.70145 -2.98265,7.39776 -3.32188,8.21402 -0.99051,2.38336 -1.55977,2.99899 5.64548,-6.10529 z m -6.94935,-3.16563 c 0.73207,-5.05618 1.28373,-9.31638 1.22589,-9.4671 -0.13496,-0.35172 -3.1085,-0.61605 -4.76604,-0.42367 -1.17959,0.1369 -1.19686,0.14805 -1.19606,0.77209 4e-4,0.34824 0.67785,4.70125 1.50533,9.67335 0.82749,4.9721 1.51126,9.13058 1.51948,9.24107 0.07,0.93947 0.57853,-1.97146 1.7114,-9.79574 z"
								style="fill-opacity:1" />
							<path
								id="path4731"
								d="m 665.12279,924.17204 c -5.91127,-0.85573 -9.71466,-2.23743 -13.95687,-5.07028 -2.14508,-1.43243 -5.48729,-4.63187 -7.14271,-6.8376 -2.37822,-3.16879 -4.48137,-7.91038 -5.24677,-11.82892 -0.4988,-2.55369 -0.50346,-8.77527 -0.008,-11.09753 1.27894,-5.99822 3.87636,-10.79248 8.16476,-15.07038 4.33875,-4.32812 9.22531,-6.99725 15.13865,-8.26904 2.755,-0.59252 8.55646,-0.64153 11.28057,-0.0953 3.92036,0.78611 7.63543,2.26554 10.70314,4.26224 7.33182,4.77213 12.1187,12.00588 13.41841,20.27739 0.41865,2.66432 0.31811,7.73247 -0.2026,10.21368 -2.42805,11.56967 -11.39809,20.56995 -22.96767,23.04508 -1.886,0.40348 -7.61557,0.69721 -9.1806,0.47066 z m 4.99657,-4.43153 0.77783,-0.12849 -0.11074,-1.42622 c -0.0609,-0.78442 -0.56103,-4.68068 -1.11138,-8.65836 -0.55036,-3.97768 -1.11469,-8.24868 -1.25409,-9.49112 -0.13939,-1.24244 -0.29219,-2.22024 -0.33954,-2.17289 -0.0474,0.0474 -0.30525,2.14871 -0.5731,4.6697 -0.26786,2.52098 -0.80119,7.21986 -1.18517,10.44195 -0.38398,3.2221 -0.69815,6.04264 -0.69815,6.26788 0,0.35621 0.15036,0.41896 1.15513,0.48201 2.25005,0.14119 2.56959,0.14268 3.33921,0.0155 z m -5.01309,-0.82133 c 0.1712,-0.81641 2.32841,-20.28184 2.31718,-20.90895 -0.005,-0.295 -1.45052,3.07971 -3.21164,7.49935 -5.04949,12.67202 -4.92561,12.32987 -4.58667,12.66882 0.33484,0.33483 3.77507,1.26858 4.72834,1.28336 0.53624,0.008 0.65525,-0.0775 0.75279,-0.54258 z m 10.19681,-0.20582 c 1.29939,-0.42541 1.68534,-0.6379 1.73045,-0.95275 0.0319,-0.22288 -0.97295,-2.84453 -2.23309,-5.82589 -1.26013,-2.98137 -3.1345,-7.44713 -4.16525,-9.9239 -1.03075,-2.47678 -1.90251,-4.41797 -1.93725,-4.31375 -0.0864,0.25931 2.72769,21.37024 2.88197,21.61987 0.17989,0.29107 1.78566,0.0307 3.72317,-0.60358 z m -16.15725,-1.8653 c 0.24839,-0.49062 1.86103,-4.50812 3.58365,-8.92776 4.25237,-10.91016 4.1718,-10.69303 3.8391,-10.34598 -0.15888,0.16573 -2.39802,3.14899 -4.97586,6.62946 -2.57785,3.48047 -5.29273,7.10648 -6.03308,8.0578 -0.74036,0.95133 -1.48994,2.00784 -1.66575,2.34781 -0.31437,0.60794 -0.30974,0.62518 0.28095,1.04579 0.90355,0.64339 4.07252,2.22366 4.31082,2.14968 0.1147,-0.0356 0.41178,-0.46617 0.66017,-0.9568 z m 20.91156,-0.0865 c 0.95673,-0.4961 2.00638,-1.11689 2.33257,-1.37954 l 0.59306,-0.47753 -0.37515,-0.57916 c -0.20633,-0.31854 -0.88867,-1.21198 -1.51633,-1.98542 -0.62765,-0.77344 -3.24102,-4.1183 -5.80749,-7.43303 -4.38672,-5.66568 -6.18221,-7.89944 -5.97465,-7.43304 0.42046,0.94482 5.96728,14.27866 6.85279,16.47321 1.19497,2.96153 1.5893,3.71652 1.94113,3.71652 0.11802,0 0.99735,-0.4059 1.95407,-0.90201 z m -25.3554,-4.12298 c 4.86266,-6.47209 11.58124,-15.57794 11.67589,-15.82457 0.18614,-0.4851 -0.4366,-0.0463 -3.56536,2.51206 -1.60212,1.31006 -5.4216,4.39267 -8.48772,6.85024 -3.06613,2.45757 -5.57478,4.5471 -5.57478,4.6434 0,0.34556 3.8844,3.84695 4.20034,3.78618 0.17586,-0.0338 0.9641,-0.91911 1.75163,-1.96731 z m 31.10466,-0.10513 c 1.65898,-1.62694 1.91526,-1.962 1.6995,-2.22198 -0.13974,-0.16838 -2.70192,-2.18747 -5.69372,-4.48687 -2.9918,-2.29941 -6.84087,-5.27684 -8.55348,-6.61653 -1.71261,-1.33968 -3.23791,-2.43614 -3.38955,-2.43657 -0.19231,-6e-4 -0.2158,0.0752 -0.0776,0.25033 0.10894,0.13812 2.61448,3.36998 5.56786,7.18192 2.95339,3.81194 5.94967,7.67662 6.65841,8.58817 0.70874,0.91155 1.41156,1.65737 1.56183,1.65737 0.15026,0 1.15232,-0.86213 2.22679,-1.91584 z m -36.7863,-2.7535 c 0.34853,-0.24783 1.72308,-1.35525 3.05456,-2.46094 1.33148,-1.10569 4.78288,-3.90772 7.66977,-6.22674 2.8869,-2.31901 5.22082,-4.24446 5.18651,-4.27878 -0.0916,-0.0916 -18.86745,7.9568 -19.30001,8.2731 -0.33215,0.24287 -0.34075,0.33298 -0.0896,0.93925 0.32338,0.7807 2.53977,4.2047 2.72175,4.2047 0.0678,0 0.40852,-0.20277 0.75705,-0.45059 z m 40.0616,-1.20678 c 1.25815,-1.96668 1.85557,-3.0706 1.85557,-3.42874 0,-0.4582 -0.47158,-0.67132 -9.54241,-4.31249 -11.14186,-4.47251 -10.32812,-4.16696 -9.84375,-3.69617 0.22098,0.21479 3.20424,2.55242 6.62946,5.19473 3.42523,2.64232 6.99368,5.41037 7.92991,6.15123 0.93623,0.74086 1.80703,1.34702 1.93511,1.34702 0.12808,0 0.59434,-0.56501 1.03611,-1.25558 z m -40.63327,-5.32128 c 1.32589,-0.5985 5.39397,-2.35515 9.04018,-3.90365 3.6462,-1.5485 7.01367,-2.98284 7.48326,-3.18743 0.46958,-0.20458 0.85379,-0.47921 0.85379,-0.61028 0,-0.30404 -0.16903,-0.28172 -8.33705,1.101 -3.64621,0.61724 -8.14236,1.34468 -9.99146,1.61653 -3.56358,0.52391 -4.17149,0.71144 -4.17149,1.28682 0,0.43681 0.83375,3.2545 1.27328,4.3031 0.39192,0.93501 0.45876,0.92449 3.84949,-0.60609 z m 43.19885,0.26324 c 0.26186,-0.62672 0.88189,-2.81637 1.1822,-4.17499 0.0931,-0.42101 0.0252,-0.59533 -0.2993,-0.769 -0.2308,-0.12353 -2.10745,-0.43982 -4.17034,-0.70289 -2.06288,-0.26306 -6.55315,-0.89203 -9.97837,-1.3977 -8.50359,-1.2554 -8.20859,-1.22292 -8.09814,-0.89157 0.0508,0.1523 2.75243,1.34046 6.0037,2.64035 3.25127,1.29989 7.58383,3.05973 9.62792,3.91075 3.78292,1.57495 4.9962,2.0491 5.28369,2.06485 0.0885,0.005 0.29039,-0.30106 0.44864,-0.6798 z m -37.39485,-6.85974 c 5.77185,-0.98365 9.07713,-1.62807 8.83929,-1.72337 -0.42292,-0.16945 -16.93538,-2.20717 -18.91226,-2.33387 l -1.25558,-0.0805 0,2.41478 c 0,1.32813 0.0916,2.65568 0.20353,2.95011 0.25543,0.67182 -0.51936,0.75729 11.12502,-1.22718 z m 38.64962,1.15133 c 0.19289,-0.1224 0.24311,-0.8373 0.20089,-2.85965 l -0.0563,-2.69644 -1.20535,0.008 c -1.10244,0.008 -18.7745,2.45729 -18.96764,2.62909 -0.046,0.041 -0.046,0.10733 0,0.1475 0.046,0.0402 3.65458,0.59035 8.01898,1.22262 4.36439,0.63228 8.52288,1.26687 9.24107,1.41022 1.57513,0.31438 2.42389,0.35674 2.76835,0.13816 z m -27.11188,-3.56632 c -0.0439,-0.21648 -1.36893,-0.7934 -4.08281,-1.77763 -2.20982,-0.80142 -6.8367,-2.51043 -10.28196,-3.79781 -3.44525,-1.28737 -6.44761,-2.34067 -6.6719,-2.34067 -0.45441,0 -0.73908,0.76475 -1.35966,3.65263 -0.32998,1.5356 -0.32996,1.6319 3.7e-4,1.87343 0.19152,0.14005 0.95506,0.31466 1.69676,0.38803 3.62451,0.35856 14.11382,1.56201 16.51595,1.89489 3.61539,0.50101 4.26646,0.51768 4.18325,0.10713 z m 11.31255,-0.5754 c 3.46559,-0.49274 8.1543,-1.12685 10.41937,-1.40915 4.95196,-0.61716 5.16052,-0.657 5.29666,-1.01175 0.11896,-0.31003 -0.71531,-3.94331 -1.09866,-4.78468 -0.13851,-0.304 -0.40799,-0.53692 -0.62121,-0.53692 -0.20712,0 -3.65047,1.29938 -7.65191,2.8875 -4.00143,1.58812 -8.60875,3.40461 -10.2385,4.03664 -1.86776,0.72434 -2.96317,1.2536 -2.96317,1.4317 0,0.15541 0.12518,0.28255 0.27818,0.28255 0.15299,0 3.11365,-0.40315 6.57924,-0.89589 z m -10.67438,-0.56852 c 0,-0.14248 -0.82636,-1.24991 -1.83636,-2.46094 -1.01,-1.21103 -4.02897,-4.86873 -6.70882,-8.12822 -2.67985,-3.25948 -5.1119,-6.1492 -5.40454,-6.42159 l -0.53208,-0.49526 -1.91285,1.96004 c -1.19144,1.22083 -1.88806,2.08882 -1.8471,2.30149 0.0362,0.1878 0.47148,0.63488 0.96737,0.9935 3.50067,2.5317 14.41978,10.61852 15.47619,11.46186 1.31124,1.04677 1.79819,1.26046 1.79819,0.78912 z m 5.49515,-1.21093 c 2.79661,-2.23733 12.29509,-9.57189 13.94379,-10.76714 2.212,-1.60364 2.21287,-1.51583 -0.0368,-3.74371 -1.05448,-1.04424 -2.03619,-1.89863 -2.18158,-1.89863 -0.14539,0 -1.34483,1.36852 -2.66542,3.04116 -1.32059,1.67264 -4.41251,5.57869 -6.87094,8.68013 -2.45842,3.10143 -4.46986,5.75579 -4.46986,5.89857 0,0.49307 0.45026,0.25413 2.28086,-1.21038 z m -8.2072,0.38888 c -0.33148,-0.26069 -3.31474,-2.48815 -6.62947,-4.94992 -3.31473,-2.46176 -6.51628,-4.8745 -7.11456,-5.36163 -0.59827,-0.48714 -1.36283,-1.02795 -1.69902,-1.2018 -0.59876,-0.30963 -0.62181,-0.30344 -1.12811,0.30303 -0.70211,0.84101 -2.21233,3.70729 -2.21233,4.19882 0,0.49072 0.17984,0.57028 6.22768,2.75507 2.59654,0.938 6.52902,2.38225 8.73884,3.20944 2.20982,0.82719 4.10826,1.5078 4.21875,1.51247 0.11049,0.005 -0.0703,-0.2048 -0.40178,-0.46548 z m 16.63285,-2.81479 c 4.39695,-1.72445 8.04692,-3.13535 8.11104,-3.13535 0.0641,0 0.6477,-0.23835 1.29683,-0.52967 1.45019,-0.6508 1.47902,-0.8716 0.36409,-2.78825 -1.33729,-2.29889 -1.659,-2.70601 -2.13952,-2.7075 -0.25874,-8e-4 -1.30829,0.69647 -2.51116,1.6683 -1.13665,0.91832 -4.66568,3.68207 -7.8423,6.14168 -3.17662,2.45961 -5.77567,4.52039 -5.77567,4.57951 0,0.0591 0.113,0.0623 0.25111,0.007 0.13812,-0.0552 3.84863,-1.51134 8.24558,-3.23578 z m -13.6002,-2.24074 c -0.38678,-2.31514 -1.11882,-6.8762 -1.62676,-10.13568 -0.50794,-3.25949 -0.97036,-6.08455 -1.02758,-6.27791 -0.14269,-0.48212 -0.8144,-0.449 -3.05206,0.15049 -2.47039,0.66184 -2.7189,0.80289 -2.55625,1.45095 0.0709,0.28255 1.15357,2.82898 2.4059,5.65872 1.25232,2.82974 3.11061,7.08862 4.12954,9.46417 1.01893,2.37556 1.95565,4.5 2.08161,4.72099 0.46852,0.82197 0.35553,-0.78229 -0.3544,-5.03173 z m 3.75843,1.29935 c 0.86523,-2.14586 2.57575,-6.2972 3.80115,-9.22521 2.85035,-6.81071 3.01242,-7.26449 2.70545,-7.57498 -0.30576,-0.30926 -3.85138,-1.26313 -4.69766,-1.2638 -0.35257,-2.8e-4 -0.69102,0.0803 -0.7521,0.17919 -0.0611,0.0988 -0.43001,2.51708 -0.81984,5.37388 -0.9389,6.88051 -2.08264,15.07256 -2.22169,15.91283 -0.26366,1.59329 0.49469,0.29343 1.98469,-3.40191 z m -4.66725,2.37635 c -0.40587,-1.03951 -7.09272,-16.61068 -7.5487,-17.57813 -0.27341,-0.58007 -0.60334,-1.05468 -0.73318,-1.05468 -0.34929,0 -3.48555,1.79567 -4.23944,2.4273 l -0.65162,0.54594 0.49411,0.67298 c 0.27177,0.37013 2.44294,3.02342 4.82484,5.89619 2.38189,2.87277 5.1274,6.19503 6.10113,7.38281 0.97373,1.18778 1.80618,2.1596 1.84989,2.1596 0.0437,0 4e-5,-0.20341 -0.097,-0.45201 z m 7.75264,-3.86719 c 1.65182,-2.09933 4.42204,-5.60688 6.15605,-7.79457 1.73401,-2.18768 3.15275,-4.06295 3.15275,-4.16726 0,-0.29027 -1.42163,-1.25625 -3.24453,-2.20463 -1.52611,-0.79397 -1.66103,-0.82975 -1.89944,-0.5037 -0.14116,0.19304 -0.85713,1.85516 -1.59106,3.69361 -0.73394,1.83844 -2.41165,5.98329 -3.72827,9.21076 -1.31662,3.22748 -2.39385,5.9363 -2.39385,6.01961 0,0.23275 0.32039,-0.15134 3.54835,-4.25382 z m -4.04194,-6.51781 c 0.72424,-5.02118 1.28978,-9.40566 1.25676,-9.7433 l -0.06,-0.61389 -2.79657,-0.0561 c -1.66203,-0.0333 -2.87747,0.0248 -2.99599,0.14331 -0.3278,0.3278 -0.2114,1.24275 1.36718,10.74629 0.83184,5.0079 1.51855,9.18433 1.52603,9.28098 0.0715,0.92348 0.59399,-2.07101 1.70263,-9.75728 z"
								style="fill-opacity:1" />
							<path
								id="path4729"
								d="m 664.94972,924.0666 c -7.83866,-0.78129 -15.65891,-5.09394 -20.429,-11.26601 -3.56682,-4.61515 -5.55862,-9.76294 -6.03259,-15.59116 -0.4654,-5.72297 0.5144,-10.61836 3.13569,-15.6668 3.57056,-6.87669 9.84337,-12.20302 17.17084,-14.58001 3.17702,-1.03061 5.61586,-1.39882 9.24107,-1.39519 3.53998,0.004 5.77848,0.33309 8.78375,1.29317 4.87613,1.55773 8.56443,3.83253 12.31675,7.59648 4.3484,4.36187 6.79577,8.83599 8.06417,14.74233 0.56954,2.6521 0.61432,8.29635 0.0876,11.04074 -1.51558,7.89661 -6.40802,15.05935 -13.30099,19.4732 -1.50546,0.96401 -4.49899,2.37709 -6.34812,2.99661 -3.77806,1.26576 -8.51734,1.77246 -12.68917,1.35664 z m 5.858,-5.32545 c -0.51176,-6.89115 -1.86258,-13.6527 -2.57109,-20.91104 0,-0.20057 -0.069,-0.25918 -0.17116,-0.1453 -0.0941,0.10496 -0.28366,1.36607 -0.42118,2.80245 -0.54819,6.18347 -1.4492,11.40639 -1.96056,17.70922 0.78513,2.71516 2.30266,1.61402 5.06406,1.57653 l 0.0599,-1.03183 z m -5.70267,0.57982 c 0.96112,-7.36294 1.48426,-13.30404 2.4383,-21.1152 0.0776,-0.55834 0.0493,-0.83055 -0.0781,-0.75178 -2.1791,4.86181 -4.00173,9.80096 -6.09723,15.06423 -1.09525,2.74984 -1.96411,5.18208 -1.93079,5.40497 1.72932,1.3199 3.88207,1.7261 5.66784,1.3978 z m 12.17176,-1.46774 c -3.08451,-5.89758 -5.89586,-17.00116 -8.63805,-19.86708 6e-4,0.81741 2.76508,21.2468 2.90596,21.47475 1.78517,0.1908 3.75642,-0.37668 5.73209,-1.60767 z m -18.20465,-0.54532 c 0.1583,-0.30611 0.78488,-1.86555 1.39239,-3.4654 2.09653,-5.84122 4.39635,-10.5713 6.3212,-16.50253 -0.0361,-0.10818 -0.74095,0.73651 -1.56642,1.87709 -3.98026,5.54278 -7.54982,9.87754 -11.50372,15.58718 -0.1722,0.37037 -0.13979,0.51032 0.17362,0.74966 0.67865,0.51826 4.18976,2.2964 4.54871,2.30362 0.19052,0.004 0.47592,-0.2435 0.63422,-0.54962 z m 23.72941,-2.65704 c -4.66016,-6.33749 -8.81095,-11.57736 -13.18759,-17.16361 1.58167,5.20688 5.22637,13.94058 8.01275,19.91976 0.2795,0.42773 0.32274,0.43372 1.02563,0.14213 1.57848,-0.68032 3.49888,-1.82005 4.14921,-2.89828 z m -28.58007,-1.25624 c 9.06189,-12.13731 12.20709,-16.41454 12.20709,-16.60073 0,-0.12323 -0.071,-0.22405 -0.15786,-0.22405 -0.0868,0 -1.46545,1.06574 -3.06361,2.36831 -4.91478,4.09078 -9.36333,7.36625 -14.2197,11.54976 -0.22082,0.26606 -0.20741,0.40524 0.0815,0.84621 0.37035,0.56522 3.65231,3.51697 3.91041,3.51697 0.0851,0 0.64406,-0.65541 1.24214,-1.45647 z m 33.55114,-2.78424 -0.47671,-0.51277 c -5.72348,-4.45679 -11.25679,-9.09049 -17.38395,-13.46749 -0.14801,-0.0568 -0.2691,-0.007 -0.2691,0.11051 4.25155,5.61586 8.9263,12.01897 13.22229,17.14773 l 0.70428,0.74486 c 1.56336,-1.24659 2.84575,-2.59797 4.20319,-4.02284 z m -38.8162,-0.72303 c 5.25309,-4.55435 10.82948,-8.16283 15.91995,-13.06482 -0.22086,-0.0736 -19.28609,8.04989 -19.57834,8.34213 -0.28811,0.28812 0.84111,2.39989 2.30605,4.31255 0.66173,0.86397 0.68522,0.87109 1.35234,0.41014 z m 42.01786,-5.12448 c -0.23652,-0.23651 -18.79455,-7.76049 -19.51562,-7.9122 -0.44135,-0.0929 -0.46787,-0.0717 -0.19702,0.15749 0.27531,0.23293 12.45919,9.70694 15.38971,11.96682 0.60894,0.46958 1.23146,0.85379 1.38337,0.85379 1.44674,-1.22756 2.44035,-3.3765 2.93956,-5.0659 z m -25.35789,-8.92589 c 0.51716,-0.47476 -0.005,-0.71701 -1.04409,-0.48419 -7.12475,1.4013 -13.87398,2.16547 -20.89485,3.53386 -0.43918,0.17101 -0.45174,0.8739 -0.0414,2.31749 0.66543,2.34099 1.13436,3.40142 1.50411,3.40142 6.62904,-2.8588 13.67249,-5.35963 20.47623,-8.76858 z m 27.24624,3.61843 c 0.12417,-0.80708 0.10846,-0.837 -0.54708,-1.04191 -0.37121,-0.11603 -1.53374,-0.31392 -2.58341,-0.43975 -3.57636,-0.42874 -17.37428,-2.43175 -18.24407,-2.64846 -1.00567,-0.25055 -1.5602,0.0256 -1.03303,0.5144 6.07518,2.73911 11.44269,4.58207 17.9713,7.39353 1.2154,0.5276 2.41059,0.96181 2.65598,0.96491 1.20468,-1.22464 1.30211,-2.66087 1.78031,-4.74272 z m -29.26423,-4.40808 c 0.0465,-0.0465 0.047,-0.11656 10e-4,-0.15558 -5.7716,-0.80178 -10.83774,-1.32336 -17.05923,-2.11554 -3.92206,-0.50201 -3.61607,-0.72017 -3.61607,2.57821 0,1.51558 0.0672,2.82279 0.1493,2.90491 7.72986,-0.71816 11.48199,-1.41385 20.525,-3.212 z m 29.26418,-3.019 c -0.1627,-0.0624 -2.08623,0.15763 -4.27451,0.48905 -5.50204,0.94024 -10.64073,1.31469 -15.98759,2.46746 6.13245,1.14787 11.11026,1.64021 17.63389,2.78722 0.33148,0.0971 1.09989,0.16016 1.70759,0.14008 l 1.10491,-0.0365 c 0.0425,-1.87883 0.16725,-4.172 -0.18429,-5.84731 z m -27.03669,2.53677 c 0.56451,-0.35696 -0.1931,-0.74821 -4.41964,-2.28239 -5.72554,-1.37538 -11.62955,-5.57911 -17.05337,-5.8851 -0.30995,0.37347 -1.22788,4.01159 -1.22788,4.86659 0,0.60763 0.0697,0.6864 0.75335,0.85088 6.57582,1.00811 13.41254,1.21759 20.3404,2.43094 1.23964,0.23428 1.26632,0.2346 1.60714,0.0191 z m 6.83036,-0.18973 c 2.58985,-0.40907 13.02837,-1.83704 16.21824,-2.21863 4.01174,-0.47991 4.15753,-0.54355 3.97856,-1.737 -0.20989,-1.39965 -1.05126,-4.12081 -1.3739,-4.44345 -5.92616,1.50511 -10.30829,3.72915 -17.81844,6.61125 -3.29674,1.26223 -3.94509,1.63862 -3.41518,1.98264 0.16574,0.10759 0.48215,0.15418 0.70313,0.10354 0.22098,-0.0507 0.9894,-0.18491 1.70759,-0.29835 z m -2.28984,-1.17495 c 1.18513,-0.97426 13.09586,-10.21253 14.7452,-11.43675 2.38491,-1.7702 2.70898,-2.11551 2.44436,-2.60457 -1.22528,-1.42165 -2.72507,-3.07139 -4.17069,-3.66746 -4.55496,5.7666 -9.84264,12.02439 -13.94332,17.63507 0,0.19069 0.21816,0.43163 0.38505,0.42527 0.0644,-0.002 0.30718,-0.16066 0.5394,-0.35156 z m -3.93784,-0.16285 c -4.63052,-5.4938 -8.85529,-12.02849 -14.34613,-17.36058 -1.61712,1.27883 -2.65891,2.47388 -4.18198,4.04347 l 0.46692,0.49701 c 6.08554,4.44882 11.36463,8.89687 17.81007,13.13222 0.13812,0.003 0.25112,-0.13723 0.25112,-0.31212 z m -2.11416,-0.29244 c -0.25757,-0.41676 -16.07839,-12.12176 -16.49174,-12.20138 -1.49495,0.88367 -2.2609,2.99009 -3.17109,4.8277 l 0.42165,0.34142 c 6.35803,2.63291 13.7516,5.21657 19.30805,7.23416 0.0341,0.004 0.004,-0.0872 -0.0669,-0.2019 z m 25.35962,-6.85207 c 1.33879,-0.52767 1.53576,-0.76105 1.2583,-1.49083 -0.29416,-0.77371 -2.13207,-3.79438 -2.4888,-4.09045 -0.41806,-0.34695 -1.06158,0.036 -3.97091,2.36283 -4.39714,3.6342 -8.47181,6.34814 -12.78876,10.09409 -0.0376,0.10643 0.4144,0.002 1.00446,-0.23254 5.93723,-2.33306 10.79002,-4.21223 16.98571,-6.6431 z m -12.52291,-13.71876 c -0.82272,-1.54427 -3.60741,-1.66234 -5.53932,-1.7609 -0.10926,0.10926 -0.46316,2.12928 -0.78645,4.48893 -0.5056,5.57937 -2.44316,13.56813 -2.00123,17.73347 2.37213,-6.65427 6.18503,-13.13176 8.327,-20.4615 z m -9.51719,20.20997 c -1.48701,-7.06476 -1.72121,-14.58856 -3.69408,-21.89194 -0.2929,-0.29488 -1.91605,0.004 -4.31383,0.79351 -1.27529,0.42007 -1.27777,0.42239 -1.16921,1.09132 3.09391,6.62153 5.10772,13.72152 8.91435,20.17483 0.14452,0 0.26277,-0.0755 0.26277,-0.16772 z m -9.76101,-19.91359 c -0.24648,-0.25639 -0.42771,-0.22201 -1.43796,0.27274 -1.76247,0.86315 -3.6671,2.17785 -3.6671,2.53127 4.01214,5.38877 7.71835,9.5695 12.2386,15.12885 0.59898,0.73871 1.11907,1.31309 1.15577,1.2764 -2.84828,-6.74446 -4.90842,-12.19796 -8.28931,-19.20926 z m 25.02594,2.56889 c -1.61762,-1.43456 -3.19617,-2.66353 -5.09009,-2.80245 -0.17208,0.1428 -0.7791,1.44347 -1.34893,2.89037 -2.00619,5.46137 -5.18738,11.99885 -6.46755,16.52048 4.638,-6.30353 8.8662,-10.45199 12.90657,-16.6084 z m -12.4322,-0.30349 c 0.22256,-1.45668 0.37686,-3.08391 0.34288,-3.61608 l -0.0618,-0.96757 c -1.98437,-0.094 -4.58993,-0.48175 -6.04334,0.39615 0.87444,7.11087 1.96041,12.63879 3.1365,20.09803 0.003,0.10875 0.084,0.0621 0.17913,-0.1036 0.95853,-5.16689 1.55982,-9.98334 2.44663,-15.80693 z"
								style="fill-opacity:1" />
							</g>
							<g
							transform="matrix(4.9634028,0,0,4.9634032,-3165.2695,-3544.5369)"
							id="Wheel2">
							<path
								id="path4733-2"
								d="m 664.41966,924.16755 c -4.66124,-0.55714 -9.8957,-2.58352 -13.70203,-5.30436 -6.09704,-4.35831 -9.96751,-10.10287 -11.83958,-17.57236 -0.59293,-2.36576 -0.75283,-8.52572 -0.29155,-11.23184 2.04052,-11.9709 11.41547,-21.56002 23.62334,-24.16299 2.45286,-0.523 9.22333,-0.51604 11.65179,0.012 2.71965,0.59133 5.13499,1.47395 7.83482,2.86302 3.18327,1.6378 5.40534,3.30029 7.96973,5.96273 4.12848,4.28634 6.83136,9.5594 7.82312,15.2622 0.50515,2.90464 0.29261,9.22121 -0.39776,11.82175 -0.69944,2.63467 -1.3357,4.26496 -2.64644,6.78098 -3.98139,7.64245 -11.43335,13.25367 -20.18169,15.19652 -1.46308,0.32493 -8.13054,0.57715 -9.84375,0.37238 z m 6.42767,-5.04747 c -4e-4,-0.30385 -0.35153,-3.03851 -0.78007,-6.07701 -0.42855,-3.03851 -1.03597,-7.57604 -1.34984,-10.08341 -0.31387,-2.50737 -0.596,-4.53353 -0.62696,-4.50258 -0.0309,0.031 -0.46647,3.70968 -0.96781,8.17493 -0.50134,4.46526 -0.99641,8.70626 -1.10015,9.42445 -0.10375,0.71819 -0.19042,1.82561 -0.19261,2.46094 l -0.004,1.15513 2.51116,0 2.51116,0 -10e-4,-0.55245 z m -5.65446,-1.40625 c 0.28511,-2.24643 2.24336,-19.71849 2.23054,-19.90143 -0.01,-0.14202 -7.66032,19.00432 -7.90705,19.78875 -0.17855,0.56763 0.17804,0.75911 2.56066,1.375 2.96512,0.76646 2.85258,0.81206 3.11585,-1.26232 z m 8.9701,1.27084 c 2.35974,-0.63423 2.91223,-0.85502 2.91633,-1.16543 0.003,-0.26255 -8.2711,-20.08836 -8.34526,-19.9952 -0.0534,0.0671 2.67662,20.6018 2.81789,21.19559 0.13521,0.56836 0.37844,0.56511 2.61104,-0.035 z m -15.18819,-1.88303 c 0.21405,-0.41957 0.97651,-2.29541 1.69435,-4.16853 0.71784,-1.87312 2.35258,-6.0576 3.63276,-9.29886 1.28018,-3.24125 2.32759,-5.94954 2.32759,-6.01842 0,-0.0689 -0.61021,0.72024 -1.35602,1.75359 -0.74582,1.03335 -3.63734,4.91687 -6.4256,8.63003 -2.78826,3.71316 -5.0709,6.89063 -5.07254,7.06103 -0.003,0.32174 1.70028,1.40018 3.61309,2.28753 0.6077,0.28191 1.12567,0.51344 1.15105,0.51452 0.0254,10e-4 0.22128,-0.34132 0.43532,-0.76089 z m 19.83447,0.26281 c 1.5048,-0.62875 3.89166,-2.18741 3.89166,-2.54134 0,-0.19423 -0.74255,-1.28441 -1.65011,-2.42262 -1.53846,-1.92945 -10.14945,-12.984 -11.158,-14.32433 -0.41359,-0.54966 -0.43735,-0.5584 -0.27186,-0.10006 0.0997,0.27623 1.3739,3.34989 2.83146,6.83036 1.45756,3.48047 3.09801,7.44676 3.64544,8.81398 1.03712,2.59024 1.71725,4.04316 1.89262,4.04316 0.0566,0 0.42501,-0.13462 0.81879,-0.29915 z m -23.79297,-5.24782 c 1.02845,-1.39346 3.98225,-5.3757 6.564,-8.84942 2.58176,-3.47372 4.65095,-6.35901 4.5982,-6.41175 -0.0528,-0.0527 -1.80349,1.29436 -3.89053,2.99359 -2.08705,1.69922 -5.86613,4.7528 -8.39796,6.78573 -2.53183,2.03293 -4.69767,3.84915 -4.81298,4.03604 -0.15977,0.25894 -0.11605,0.44483 0.18369,0.78116 0.66838,0.74998 3.49898,3.19823 3.6977,3.19823 0.10339,0 1.02944,-1.14011 2.05788,-2.53358 z m 30.94914,0.13569 c 0.85631,-0.83055 1.55692,-1.5765 1.55692,-1.65765 0,-0.25124 -0.77855,-0.89992 -4.52009,-3.76607 -1.98884,-1.52352 -5.73144,-4.41133 -8.3169,-6.41736 -2.58545,-2.00603 -4.7412,-3.60694 -4.79056,-3.55759 -0.0977,0.0977 12.08332,15.87913 13.0756,16.94035 0.71274,0.76226 0.51442,0.86434 2.99503,-1.54168 z m -35.89665,-3.39283 c 0.76632,-0.6436 4.28616,-3.50065 7.82187,-6.349 3.53572,-2.84835 6.51898,-5.26551 6.62947,-5.37147 0.28599,-0.27427 0.0892,-0.19411 -8.44074,3.43752 -8.88569,3.7831 -10.74453,4.62727 -10.74453,4.87945 0,0.24872 1.42216,2.66065 2.19338,3.71989 0.3419,0.46959 0.7399,0.85379 0.88444,0.85379 0.14454,0 0.88979,-0.52658 1.65611,-1.17018 z m 39.84351,-1.72945 c 1.18886,-2.07786 1.19837,-2.16522 0.28407,-2.60974 -1.00064,-0.48651 -18.60338,-7.55858 -18.65818,-7.49611 -0.0231,0.0263 1.41682,1.17216 3.19986,2.54626 1.78305,1.3741 4.98854,3.86015 7.12332,5.52456 2.13477,1.6644 4.39294,3.42005 5.01813,3.90143 l 1.13671,0.87526 0.52031,-0.62325 c 0.28617,-0.34278 0.90527,-1.29607 1.37578,-2.11841 z m -41.81936,-3.79317 c 1.0796,-0.49355 5.39817,-2.36067 9.59683,-4.14915 4.19866,-1.78848 7.7183,-3.33365 7.82143,-3.43371 0.42075,-0.40825 -0.17263,-0.41587 -2.13632,-0.0274 -1.13797,0.2251 -5.59471,0.96598 -9.90386,1.64641 -4.30915,0.68043 -8.33203,1.34309 -8.93973,1.47259 -1.08131,0.23042 -1.10382,0.24939 -1.05393,0.88832 0.0435,0.55718 1.14293,4.30465 1.38068,4.70621 0.12323,0.20812 1.08076,-0.11844 3.2349,-1.10323 z m 44.03553,-1.5197 c 0.33941,-1.14691 0.61711,-2.33832 0.61711,-2.64759 0,-0.67471 -0.0266,-0.68109 -6.22768,-1.49238 -3.74073,-0.4894 -13.43016,-1.9022 -15.34505,-2.23742 -1.66661,-0.29177 -0.54499,0.43767 2.60351,1.69316 1.75952,0.70161 5.95638,2.40539 9.32636,3.78617 7.41335,3.03745 8.09832,3.29584 8.2724,3.12053 0.0749,-0.0755 0.41394,-1.07557 0.75335,-2.22247 z m -37.77202,-5.24977 c 5.3994,-0.9165 8.57433,-1.53704 8.33706,-1.62947 -0.21076,-0.0821 -3.59247,-0.52086 -7.5149,-0.97498 -3.92243,-0.45413 -7.96694,-0.95738 -8.98779,-1.11832 -2.38788,-0.37647 -2.99248,-0.37164 -3.14473,0.0251 -0.15815,0.41212 -0.15335,2.23234 0.0105,3.96699 l 0.12954,1.37182 1.22505,-0.0805 c 0.67379,-0.0443 5.14918,-0.74658 9.94532,-1.56068 z m 38.66535,0.58002 c 0.16175,-0.80872 0.15786,-3.95206 -0.006,-4.5627 -0.11313,-0.42253 -0.21839,-0.46139 -1.05195,-0.38833 -1.82525,0.15997 -18.70524,2.66624 -18.70524,2.77727 0,0.0624 3.59347,0.63313 7.98549,1.26837 4.39202,0.63523 8.3019,1.23081 8.68862,1.32351 0.38671,0.0927 1.21163,0.1778 1.83314,0.18911 1.11074,0.0202 1.13217,0.01 1.25558,-0.60723 z m -27.19587,-2.76279 c 0,-0.30173 -0.44696,-0.53999 -2.10937,-1.12444 -0.88393,-0.31076 -5.46654,-1.99846 -10.18357,-3.75045 -4.71703,-1.75198 -8.66893,-3.18542 -8.78199,-3.18542 -0.11307,0 -0.30503,0.18582 -0.42658,0.41295 -0.32888,0.61452 -1.19259,4.5942 -1.06771,4.91964 0.12497,0.32567 0.53993,0.40489 3.68529,0.70362 3.34828,0.318 15.81244,1.7839 16.875,1.98466 1.24147,0.23455 2.00893,0.24962 2.00893,0.0394 z m 10.84822,-0.71851 c 2.70703,-0.39769 7.33997,-1.03163 10.29542,-1.40876 2.95545,-0.37714 5.4641,-0.74166 5.57477,-0.81007 0.26101,-0.16131 0.25447,-0.99795 -0.0157,-2.00913 -0.73333,-2.74467 -1.02228,-3.51563 -1.31763,-3.51563 -0.17172,0 -3.58055,1.29877 -7.5752,2.88615 -3.99465,1.58738 -8.52862,3.36772 -10.07549,3.9563 -1.54688,0.58858 -2.92551,1.15412 -3.06362,1.25675 -0.4925,0.36598 -0.25517,0.5927 0.50223,0.47978 0.41434,-0.0618 2.9682,-0.43771 5.67523,-0.83539 z m -10.24554,-0.47566 c 0,-0.0908 -0.2486,-0.48533 -0.55245,-0.87671 -1.12916,-1.45444 -13.53365,-16.42673 -13.68908,-16.5228 -0.0888,-0.0549 -1.04821,0.80277 -2.13201,1.90589 l -1.97054,2.00568 0.48342,0.51974 c 0.26589,0.28586 0.89024,0.7973 1.38745,1.13655 1.11882,0.76337 11.66279,8.55271 14.26339,10.53705 1.87171,1.42818 2.20982,1.62626 2.20982,1.2946 z m 4.72389,-0.80629 c 1.04706,-0.84586 12.16062,-9.43719 15.12267,-11.69057 0.5847,-0.44481 1.11871,-0.95369 1.18669,-1.13085 0.0869,-0.22657 -0.45097,-0.88835 -1.81366,-2.23127 -1.65011,-1.62618 -1.98296,-1.87124 -2.24558,-1.65329 -0.25875,0.21474 -11.4935,14.33985 -13.20727,16.6051 -1.04786,1.38505 -0.68041,1.42378 0.95715,0.10088 z m -7.54356,-0.10656 c -0.16179,-0.15091 -2.92813,-2.22016 -6.14741,-4.59834 -3.21928,-2.37817 -6.55635,-4.87834 -7.4157,-5.55593 -0.85935,-0.67759 -1.7738,-1.28503 -2.03212,-1.34986 -0.60566,-0.15201 -0.96708,0.28485 -2.21627,2.67889 -0.85403,1.63672 -0.93021,1.88243 -0.66347,2.13983 0.16573,0.15993 1.97377,0.88877 4.01785,1.61964 2.04409,0.73087 6.11217,2.22423 9.04018,3.31857 2.92802,1.09434 5.41084,1.99688 5.51738,2.00565 0.10655,0.009 0.0614,-0.10754 -0.10044,-0.25845 z m 2.93537,-5.88483 c -0.94546,-5.8033 -2.52641,-15.72979 -2.52641,-15.86285 0,-0.29119 -2.81353,0.32809 -4.77858,1.0518 -0.73552,0.27089 -0.84217,0.38028 -0.73098,0.74974 0.0716,0.23792 0.97767,2.35001 2.01349,4.69353 1.03582,2.34352 2.88079,6.5924 4.09992,9.44196 2.83906,6.6359 2.66157,6.25903 2.75622,5.85216 0.0426,-0.18332 -0.3325,-2.85018 -0.83366,-5.92634 z m 3.697,2.64359 c 0.69683,-1.76786 2.51969,-6.22651 4.05079,-9.90812 1.53111,-3.68161 2.78383,-6.86464 2.78383,-7.0734 0,-0.29223 -0.30331,-0.47325 -1.31824,-0.78673 -2.15255,-0.66486 -3.90606,-0.93674 -4.09279,-0.6346 -0.0866,0.14013 -0.40346,2.07806 -0.70413,4.3065 -0.30066,2.22844 -0.94619,6.8805 -1.4345,10.33792 -0.90794,6.42851 -1.01557,7.49956 -0.71988,7.16356 0.0924,-0.10496 0.73808,-1.63727 1.43492,-3.40513 z m 9.90241,0.43441 c 4.33448,-1.69466 8.4431,-3.28668 9.13026,-3.5378 1.67734,-0.61299 1.81721,-0.80828 1.34043,-1.87157 -0.60434,-1.34773 -2.25288,-3.76388 -2.56811,-3.76388 -0.15826,0 -0.7847,0.38421 -1.39209,0.8538 -6.3254,4.89032 -14.61464,11.40067 -14.51581,11.40067 0.0684,0 3.67085,-1.38655 8.00532,-3.08122 z m -18.14684,-7.38194 c -2.10596,-4.90765 -3.96472,-9.13167 -4.13057,-9.3867 l -0.30156,-0.46369 -1.34374,0.73804 c -1.67851,0.92191 -3.45311,2.09192 -3.45311,2.27667 0,0.0769 2.50865,3.16943 5.57477,6.87233 3.06613,3.70289 5.98159,7.23644 6.4788,7.85232 0.49721,0.61588 0.92661,1.10049 0.95422,1.07691 0.0276,-0.0236 -1.67285,-4.05823 -3.77881,-8.96588 z m 14.51096,1.12099 c 2.7985,-3.53608 5.39597,-6.8212 5.77215,-7.30028 l 0.68396,-0.87105 -0.58352,-0.47224 c -0.32093,-0.25974 -1.44937,-0.92748 -2.50763,-1.48389 l -1.92411,-1.01164 -0.52967,1.15023 c -0.29132,0.63263 -1.74697,4.17869 -3.23478,7.88014 -1.4878,3.70145 -2.98265,7.39776 -3.32188,8.21402 -0.99051,2.38336 -1.55977,2.99899 5.64548,-6.10529 z m -6.94935,-3.16563 c 0.73207,-5.05618 1.28373,-9.31638 1.22589,-9.4671 -0.13496,-0.35172 -3.1085,-0.61605 -4.76604,-0.42367 -1.17959,0.1369 -1.19686,0.14805 -1.19606,0.77209 4e-4,0.34824 0.67785,4.70125 1.50533,9.67335 0.82749,4.9721 1.51126,9.13058 1.51948,9.24107 0.07,0.93947 0.57853,-1.97146 1.7114,-9.79574 z"
								style="fill-opacity:1" />
							<path
								id="path4731-0"
								d="m 665.12279,924.17204 c -5.91127,-0.85573 -9.71466,-2.23743 -13.95687,-5.07028 -2.14508,-1.43243 -5.48729,-4.63187 -7.14271,-6.8376 -2.37822,-3.16879 -4.48137,-7.91038 -5.24677,-11.82892 -0.4988,-2.55369 -0.50346,-8.77527 -0.008,-11.09753 1.27894,-5.99822 3.87636,-10.79248 8.16476,-15.07038 4.33875,-4.32812 9.22531,-6.99725 15.13865,-8.26904 2.755,-0.59252 8.55646,-0.64153 11.28057,-0.0953 3.92036,0.78611 7.63543,2.26554 10.70314,4.26224 7.33182,4.77213 12.1187,12.00588 13.41841,20.27739 0.41865,2.66432 0.31811,7.73247 -0.2026,10.21368 -2.42805,11.56967 -11.39809,20.56995 -22.96767,23.04508 -1.886,0.40348 -7.61557,0.69721 -9.1806,0.47066 z m 4.99657,-4.43153 0.77783,-0.12849 -0.11074,-1.42622 c -0.0609,-0.78442 -0.56103,-4.68068 -1.11138,-8.65836 -0.55036,-3.97768 -1.11469,-8.24868 -1.25409,-9.49112 -0.13939,-1.24244 -0.29219,-2.22024 -0.33954,-2.17289 -0.0474,0.0474 -0.30525,2.14871 -0.5731,4.6697 -0.26786,2.52098 -0.80119,7.21986 -1.18517,10.44195 -0.38398,3.2221 -0.69815,6.04264 -0.69815,6.26788 0,0.35621 0.15036,0.41896 1.15513,0.48201 2.25005,0.14119 2.56959,0.14268 3.33921,0.0155 z m -5.01309,-0.82133 c 0.1712,-0.81641 2.32841,-20.28184 2.31718,-20.90895 -0.005,-0.295 -1.45052,3.07971 -3.21164,7.49935 -5.04949,12.67202 -4.92561,12.32987 -4.58667,12.66882 0.33484,0.33483 3.77507,1.26858 4.72834,1.28336 0.53624,0.008 0.65525,-0.0775 0.75279,-0.54258 z m 10.19681,-0.20582 c 1.29939,-0.42541 1.68534,-0.6379 1.73045,-0.95275 0.0319,-0.22288 -0.97295,-2.84453 -2.23309,-5.82589 -1.26013,-2.98137 -3.1345,-7.44713 -4.16525,-9.9239 -1.03075,-2.47678 -1.90251,-4.41797 -1.93725,-4.31375 -0.0864,0.25931 2.72769,21.37024 2.88197,21.61987 0.17989,0.29107 1.78566,0.0307 3.72317,-0.60358 z m -16.15725,-1.8653 c 0.24839,-0.49062 1.86103,-4.50812 3.58365,-8.92776 4.25237,-10.91016 4.1718,-10.69303 3.8391,-10.34598 -0.15888,0.16573 -2.39802,3.14899 -4.97586,6.62946 -2.57785,3.48047 -5.29273,7.10648 -6.03308,8.0578 -0.74036,0.95133 -1.48994,2.00784 -1.66575,2.34781 -0.31437,0.60794 -0.30974,0.62518 0.28095,1.04579 0.90355,0.64339 4.07252,2.22366 4.31082,2.14968 0.1147,-0.0356 0.41178,-0.46617 0.66017,-0.9568 z m 20.91156,-0.0865 c 0.95673,-0.4961 2.00638,-1.11689 2.33257,-1.37954 l 0.59306,-0.47753 -0.37515,-0.57916 c -0.20633,-0.31854 -0.88867,-1.21198 -1.51633,-1.98542 -0.62765,-0.77344 -3.24102,-4.1183 -5.80749,-7.43303 -4.38672,-5.66568 -6.18221,-7.89944 -5.97465,-7.43304 0.42046,0.94482 5.96728,14.27866 6.85279,16.47321 1.19497,2.96153 1.5893,3.71652 1.94113,3.71652 0.11802,0 0.99735,-0.4059 1.95407,-0.90201 z m -25.3554,-4.12298 c 4.86266,-6.47209 11.58124,-15.57794 11.67589,-15.82457 0.18614,-0.4851 -0.4366,-0.0463 -3.56536,2.51206 -1.60212,1.31006 -5.4216,4.39267 -8.48772,6.85024 -3.06613,2.45757 -5.57478,4.5471 -5.57478,4.6434 0,0.34556 3.8844,3.84695 4.20034,3.78618 0.17586,-0.0338 0.9641,-0.91911 1.75163,-1.96731 z m 31.10466,-0.10513 c 1.65898,-1.62694 1.91526,-1.962 1.6995,-2.22198 -0.13974,-0.16838 -2.70192,-2.18747 -5.69372,-4.48687 -2.9918,-2.29941 -6.84087,-5.27684 -8.55348,-6.61653 -1.71261,-1.33968 -3.23791,-2.43614 -3.38955,-2.43657 -0.19231,-6e-4 -0.2158,0.0752 -0.0776,0.25033 0.10894,0.13812 2.61448,3.36998 5.56786,7.18192 2.95339,3.81194 5.94967,7.67662 6.65841,8.58817 0.70874,0.91155 1.41156,1.65737 1.56183,1.65737 0.15026,0 1.15232,-0.86213 2.22679,-1.91584 z m -36.7863,-2.7535 c 0.34853,-0.24783 1.72308,-1.35525 3.05456,-2.46094 1.33148,-1.10569 4.78288,-3.90772 7.66977,-6.22674 2.8869,-2.31901 5.22082,-4.24446 5.18651,-4.27878 -0.0916,-0.0916 -18.86745,7.9568 -19.30001,8.2731 -0.33215,0.24287 -0.34075,0.33298 -0.0896,0.93925 0.32338,0.7807 2.53977,4.2047 2.72175,4.2047 0.0678,0 0.40852,-0.20277 0.75705,-0.45059 z m 40.0616,-1.20678 c 1.25815,-1.96668 1.85557,-3.0706 1.85557,-3.42874 0,-0.4582 -0.47158,-0.67132 -9.54241,-4.31249 -11.14186,-4.47251 -10.32812,-4.16696 -9.84375,-3.69617 0.22098,0.21479 3.20424,2.55242 6.62946,5.19473 3.42523,2.64232 6.99368,5.41037 7.92991,6.15123 0.93623,0.74086 1.80703,1.34702 1.93511,1.34702 0.12808,0 0.59434,-0.56501 1.03611,-1.25558 z m -40.63327,-5.32128 c 1.32589,-0.5985 5.39397,-2.35515 9.04018,-3.90365 3.6462,-1.5485 7.01367,-2.98284 7.48326,-3.18743 0.46958,-0.20458 0.85379,-0.47921 0.85379,-0.61028 0,-0.30404 -0.16903,-0.28172 -8.33705,1.101 -3.64621,0.61724 -8.14236,1.34468 -9.99146,1.61653 -3.56358,0.52391 -4.17149,0.71144 -4.17149,1.28682 0,0.43681 0.83375,3.2545 1.27328,4.3031 0.39192,0.93501 0.45876,0.92449 3.84949,-0.60609 z m 43.19885,0.26324 c 0.26186,-0.62672 0.88189,-2.81637 1.1822,-4.17499 0.0931,-0.42101 0.0252,-0.59533 -0.2993,-0.769 -0.2308,-0.12353 -2.10745,-0.43982 -4.17034,-0.70289 -2.06288,-0.26306 -6.55315,-0.89203 -9.97837,-1.3977 -8.50359,-1.2554 -8.20859,-1.22292 -8.09814,-0.89157 0.0508,0.1523 2.75243,1.34046 6.0037,2.64035 3.25127,1.29989 7.58383,3.05973 9.62792,3.91075 3.78292,1.57495 4.9962,2.0491 5.28369,2.06485 0.0885,0.005 0.29039,-0.30106 0.44864,-0.6798 z m -37.39485,-6.85974 c 5.77185,-0.98365 9.07713,-1.62807 8.83929,-1.72337 -0.42292,-0.16945 -16.93538,-2.20717 -18.91226,-2.33387 l -1.25558,-0.0805 0,2.41478 c 0,1.32813 0.0916,2.65568 0.20353,2.95011 0.25543,0.67182 -0.51936,0.75729 11.12502,-1.22718 z m 38.64962,1.15133 c 0.19289,-0.1224 0.24311,-0.8373 0.20089,-2.85965 l -0.0563,-2.69644 -1.20535,0.008 c -1.10244,0.008 -18.7745,2.45729 -18.96764,2.62909 -0.046,0.041 -0.046,0.10733 0,0.1475 0.046,0.0402 3.65458,0.59035 8.01898,1.22262 4.36439,0.63228 8.52288,1.26687 9.24107,1.41022 1.57513,0.31438 2.42389,0.35674 2.76835,0.13816 z m -27.11188,-3.56632 c -0.0439,-0.21648 -1.36893,-0.7934 -4.08281,-1.77763 -2.20982,-0.80142 -6.8367,-2.51043 -10.28196,-3.79781 -3.44525,-1.28737 -6.44761,-2.34067 -6.6719,-2.34067 -0.45441,0 -0.73908,0.76475 -1.35966,3.65263 -0.32998,1.5356 -0.32996,1.6319 3.7e-4,1.87343 0.19152,0.14005 0.95506,0.31466 1.69676,0.38803 3.62451,0.35856 14.11382,1.56201 16.51595,1.89489 3.61539,0.50101 4.26646,0.51768 4.18325,0.10713 z m 11.31255,-0.5754 c 3.46559,-0.49274 8.1543,-1.12685 10.41937,-1.40915 4.95196,-0.61716 5.16052,-0.657 5.29666,-1.01175 0.11896,-0.31003 -0.71531,-3.94331 -1.09866,-4.78468 -0.13851,-0.304 -0.40799,-0.53692 -0.62121,-0.53692 -0.20712,0 -3.65047,1.29938 -7.65191,2.8875 -4.00143,1.58812 -8.60875,3.40461 -10.2385,4.03664 -1.86776,0.72434 -2.96317,1.2536 -2.96317,1.4317 0,0.15541 0.12518,0.28255 0.27818,0.28255 0.15299,0 3.11365,-0.40315 6.57924,-0.89589 z m -10.67438,-0.56852 c 0,-0.14248 -0.82636,-1.24991 -1.83636,-2.46094 -1.01,-1.21103 -4.02897,-4.86873 -6.70882,-8.12822 -2.67985,-3.25948 -5.1119,-6.1492 -5.40454,-6.42159 l -0.53208,-0.49526 -1.91285,1.96004 c -1.19144,1.22083 -1.88806,2.08882 -1.8471,2.30149 0.0362,0.1878 0.47148,0.63488 0.96737,0.9935 3.50067,2.5317 14.41978,10.61852 15.47619,11.46186 1.31124,1.04677 1.79819,1.26046 1.79819,0.78912 z m 5.49515,-1.21093 c 2.79661,-2.23733 12.29509,-9.57189 13.94379,-10.76714 2.212,-1.60364 2.21287,-1.51583 -0.0368,-3.74371 -1.05448,-1.04424 -2.03619,-1.89863 -2.18158,-1.89863 -0.14539,0 -1.34483,1.36852 -2.66542,3.04116 -1.32059,1.67264 -4.41251,5.57869 -6.87094,8.68013 -2.45842,3.10143 -4.46986,5.75579 -4.46986,5.89857 0,0.49307 0.45026,0.25413 2.28086,-1.21038 z m -8.2072,0.38888 c -0.33148,-0.26069 -3.31474,-2.48815 -6.62947,-4.94992 -3.31473,-2.46176 -6.51628,-4.8745 -7.11456,-5.36163 -0.59827,-0.48714 -1.36283,-1.02795 -1.69902,-1.2018 -0.59876,-0.30963 -0.62181,-0.30344 -1.12811,0.30303 -0.70211,0.84101 -2.21233,3.70729 -2.21233,4.19882 0,0.49072 0.17984,0.57028 6.22768,2.75507 2.59654,0.938 6.52902,2.38225 8.73884,3.20944 2.20982,0.82719 4.10826,1.5078 4.21875,1.51247 0.11049,0.005 -0.0703,-0.2048 -0.40178,-0.46548 z m 16.63285,-2.81479 c 4.39695,-1.72445 8.04692,-3.13535 8.11104,-3.13535 0.0641,0 0.6477,-0.23835 1.29683,-0.52967 1.45019,-0.6508 1.47902,-0.8716 0.36409,-2.78825 -1.33729,-2.29889 -1.659,-2.70601 -2.13952,-2.7075 -0.25874,-8e-4 -1.30829,0.69647 -2.51116,1.6683 -1.13665,0.91832 -4.66568,3.68207 -7.8423,6.14168 -3.17662,2.45961 -5.77567,4.52039 -5.77567,4.57951 0,0.0591 0.113,0.0623 0.25111,0.007 0.13812,-0.0552 3.84863,-1.51134 8.24558,-3.23578 z m -13.6002,-2.24074 c -0.38678,-2.31514 -1.11882,-6.8762 -1.62676,-10.13568 -0.50794,-3.25949 -0.97036,-6.08455 -1.02758,-6.27791 -0.14269,-0.48212 -0.8144,-0.449 -3.05206,0.15049 -2.47039,0.66184 -2.7189,0.80289 -2.55625,1.45095 0.0709,0.28255 1.15357,2.82898 2.4059,5.65872 1.25232,2.82974 3.11061,7.08862 4.12954,9.46417 1.01893,2.37556 1.95565,4.5 2.08161,4.72099 0.46852,0.82197 0.35553,-0.78229 -0.3544,-5.03173 z m 3.75843,1.29935 c 0.86523,-2.14586 2.57575,-6.2972 3.80115,-9.22521 2.85035,-6.81071 3.01242,-7.26449 2.70545,-7.57498 -0.30576,-0.30926 -3.85138,-1.26313 -4.69766,-1.2638 -0.35257,-2.8e-4 -0.69102,0.0803 -0.7521,0.17919 -0.0611,0.0988 -0.43001,2.51708 -0.81984,5.37388 -0.9389,6.88051 -2.08264,15.07256 -2.22169,15.91283 -0.26366,1.59329 0.49469,0.29343 1.98469,-3.40191 z m -4.66725,2.37635 c -0.40587,-1.03951 -7.09272,-16.61068 -7.5487,-17.57813 -0.27341,-0.58007 -0.60334,-1.05468 -0.73318,-1.05468 -0.34929,0 -3.48555,1.79567 -4.23944,2.4273 l -0.65162,0.54594 0.49411,0.67298 c 0.27177,0.37013 2.44294,3.02342 4.82484,5.89619 2.38189,2.87277 5.1274,6.19503 6.10113,7.38281 0.97373,1.18778 1.80618,2.1596 1.84989,2.1596 0.0437,0 4e-5,-0.20341 -0.097,-0.45201 z m 7.75264,-3.86719 c 1.65182,-2.09933 4.42204,-5.60688 6.15605,-7.79457 1.73401,-2.18768 3.15275,-4.06295 3.15275,-4.16726 0,-0.29027 -1.42163,-1.25625 -3.24453,-2.20463 -1.52611,-0.79397 -1.66103,-0.82975 -1.89944,-0.5037 -0.14116,0.19304 -0.85713,1.85516 -1.59106,3.69361 -0.73394,1.83844 -2.41165,5.98329 -3.72827,9.21076 -1.31662,3.22748 -2.39385,5.9363 -2.39385,6.01961 0,0.23275 0.32039,-0.15134 3.54835,-4.25382 z m -4.04194,-6.51781 c 0.72424,-5.02118 1.28978,-9.40566 1.25676,-9.7433 l -0.06,-0.61389 -2.79657,-0.0561 c -1.66203,-0.0333 -2.87747,0.0248 -2.99599,0.14331 -0.3278,0.3278 -0.2114,1.24275 1.36718,10.74629 0.83184,5.0079 1.51855,9.18433 1.52603,9.28098 0.0715,0.92348 0.59399,-2.07101 1.70263,-9.75728 z"
								style="fill-opacity:1" />
							<path
								id="path4729-5"
								d="m 664.94972,924.0666 c -7.83866,-0.78129 -15.65891,-5.09394 -20.429,-11.26601 -3.56682,-4.61515 -5.55862,-9.76294 -6.03259,-15.59116 -0.4654,-5.72297 0.5144,-10.61836 3.13569,-15.6668 3.57056,-6.87669 9.84337,-12.20302 17.17084,-14.58001 3.17702,-1.03061 5.61586,-1.39882 9.24107,-1.39519 3.53998,0.004 5.77848,0.33309 8.78375,1.29317 4.87613,1.55773 8.56443,3.83253 12.31675,7.59648 4.3484,4.36187 6.79577,8.83599 8.06417,14.74233 0.56954,2.6521 0.61432,8.29635 0.0876,11.04074 -1.51558,7.89661 -6.40802,15.05935 -13.30099,19.4732 -1.50546,0.96401 -4.49899,2.37709 -6.34812,2.99661 -3.77806,1.26576 -8.51734,1.77246 -12.68917,1.35664 z m 5.858,-5.32545 c -0.51176,-6.89115 -1.86258,-13.6527 -2.57109,-20.91104 0,-0.20057 -0.069,-0.25918 -0.17116,-0.1453 -0.0941,0.10496 -0.28366,1.36607 -0.42118,2.80245 -0.54819,6.18347 -1.4492,11.40639 -1.96056,17.70922 0.78513,2.71516 2.30266,1.61402 5.06406,1.57653 l 0.0599,-1.03183 z m -5.70267,0.57982 c 0.96112,-7.36294 1.48426,-13.30404 2.4383,-21.1152 0.0776,-0.55834 0.0493,-0.83055 -0.0781,-0.75178 -2.1791,4.86181 -4.00173,9.80096 -6.09723,15.06423 -1.09525,2.74984 -1.96411,5.18208 -1.93079,5.40497 1.72932,1.3199 3.88207,1.7261 5.66784,1.3978 z m 12.17176,-1.46774 c -3.08451,-5.89758 -5.89586,-17.00116 -8.63805,-19.86708 6e-4,0.81741 2.76508,21.2468 2.90596,21.47475 1.78517,0.1908 3.75642,-0.37668 5.73209,-1.60767 z m -18.20465,-0.54532 c 0.1583,-0.30611 0.78488,-1.86555 1.39239,-3.4654 2.09653,-5.84122 4.39635,-10.5713 6.3212,-16.50253 -0.0361,-0.10818 -0.74095,0.73651 -1.56642,1.87709 -3.98026,5.54278 -7.54982,9.87754 -11.50372,15.58718 -0.1722,0.37037 -0.13979,0.51032 0.17362,0.74966 0.67865,0.51826 4.18976,2.2964 4.54871,2.30362 0.19052,0.004 0.47592,-0.2435 0.63422,-0.54962 z m 23.72941,-2.65704 c -4.66016,-6.33749 -8.81095,-11.57736 -13.18759,-17.16361 1.58167,5.20688 5.22637,13.94058 8.01275,19.91976 0.2795,0.42773 0.32274,0.43372 1.02563,0.14213 1.57848,-0.68032 3.49888,-1.82005 4.14921,-2.89828 z m -28.58007,-1.25624 c 9.06189,-12.13731 12.20709,-16.41454 12.20709,-16.60073 0,-0.12323 -0.071,-0.22405 -0.15786,-0.22405 -0.0868,0 -1.46545,1.06574 -3.06361,2.36831 -4.91478,4.09078 -9.36333,7.36625 -14.2197,11.54976 -0.22082,0.26606 -0.20741,0.40524 0.0815,0.84621 0.37035,0.56522 3.65231,3.51697 3.91041,3.51697 0.0851,0 0.64406,-0.65541 1.24214,-1.45647 z m 33.55114,-2.78424 -0.47671,-0.51277 c -5.72348,-4.45679 -11.25679,-9.09049 -17.38395,-13.46749 -0.14801,-0.0568 -0.2691,-0.007 -0.2691,0.11051 4.25155,5.61586 8.9263,12.01897 13.22229,17.14773 l 0.70428,0.74486 c 1.56336,-1.24659 2.84575,-2.59797 4.20319,-4.02284 z m -38.8162,-0.72303 c 5.25309,-4.55435 10.82948,-8.16283 15.91995,-13.06482 -0.22086,-0.0736 -19.28609,8.04989 -19.57834,8.34213 -0.28811,0.28812 0.84111,2.39989 2.30605,4.31255 0.66173,0.86397 0.68522,0.87109 1.35234,0.41014 z m 42.01786,-5.12448 c -0.23652,-0.23651 -18.79455,-7.76049 -19.51562,-7.9122 -0.44135,-0.0929 -0.46787,-0.0717 -0.19702,0.15749 0.27531,0.23293 12.45919,9.70694 15.38971,11.96682 0.60894,0.46958 1.23146,0.85379 1.38337,0.85379 1.44674,-1.22756 2.44035,-3.3765 2.93956,-5.0659 z m -25.35789,-8.92589 c 0.51716,-0.47476 -0.005,-0.71701 -1.04409,-0.48419 -7.12475,1.4013 -13.87398,2.16547 -20.89485,3.53386 -0.43918,0.17101 -0.45174,0.8739 -0.0414,2.31749 0.66543,2.34099 1.13436,3.40142 1.50411,3.40142 6.62904,-2.8588 13.67249,-5.35963 20.47623,-8.76858 z m 27.24624,3.61843 c 0.12417,-0.80708 0.10846,-0.837 -0.54708,-1.04191 -0.37121,-0.11603 -1.53374,-0.31392 -2.58341,-0.43975 -3.57636,-0.42874 -17.37428,-2.43175 -18.24407,-2.64846 -1.00567,-0.25055 -1.5602,0.0256 -1.03303,0.5144 6.07518,2.73911 11.44269,4.58207 17.9713,7.39353 1.2154,0.5276 2.41059,0.96181 2.65598,0.96491 1.20468,-1.22464 1.30211,-2.66087 1.78031,-4.74272 z m -29.26423,-4.40808 c 0.0465,-0.0465 0.047,-0.11656 10e-4,-0.15558 -5.7716,-0.80178 -10.83774,-1.32336 -17.05923,-2.11554 -3.92206,-0.50201 -3.61607,-0.72017 -3.61607,2.57821 0,1.51558 0.0672,2.82279 0.1493,2.90491 7.72986,-0.71816 11.48199,-1.41385 20.525,-3.212 z m 29.26418,-3.019 c -0.1627,-0.0624 -2.08623,0.15763 -4.27451,0.48905 -5.50204,0.94024 -10.64073,1.31469 -15.98759,2.46746 6.13245,1.14787 11.11026,1.64021 17.63389,2.78722 0.33148,0.0971 1.09989,0.16016 1.70759,0.14008 l 1.10491,-0.0365 c 0.0425,-1.87883 0.16725,-4.172 -0.18429,-5.84731 z m -27.03669,2.53677 c 0.56451,-0.35696 -0.1931,-0.74821 -4.41964,-2.28239 -5.72554,-1.37538 -11.62955,-5.57911 -17.05337,-5.8851 -0.30995,0.37347 -1.22788,4.01159 -1.22788,4.86659 0,0.60763 0.0697,0.6864 0.75335,0.85088 6.57582,1.00811 13.41254,1.21759 20.3404,2.43094 1.23964,0.23428 1.26632,0.2346 1.60714,0.0191 z m 6.83036,-0.18973 c 2.58985,-0.40907 13.02837,-1.83704 16.21824,-2.21863 4.01174,-0.47991 4.15753,-0.54355 3.97856,-1.737 -0.20989,-1.39965 -1.05126,-4.12081 -1.3739,-4.44345 -5.92616,1.50511 -10.30829,3.72915 -17.81844,6.61125 -3.29674,1.26223 -3.94509,1.63862 -3.41518,1.98264 0.16574,0.10759 0.48215,0.15418 0.70313,0.10354 0.22098,-0.0507 0.9894,-0.18491 1.70759,-0.29835 z m -2.28984,-1.17495 c 1.18513,-0.97426 13.09586,-10.21253 14.7452,-11.43675 2.38491,-1.7702 2.70898,-2.11551 2.44436,-2.60457 -1.22528,-1.42165 -2.72507,-3.07139 -4.17069,-3.66746 -4.55496,5.7666 -9.84264,12.02439 -13.94332,17.63507 0,0.19069 0.21816,0.43163 0.38505,0.42527 0.0644,-0.002 0.30718,-0.16066 0.5394,-0.35156 z m -3.93784,-0.16285 c -4.63052,-5.4938 -8.85529,-12.02849 -14.34613,-17.36058 -1.61712,1.27883 -2.65891,2.47388 -4.18198,4.04347 l 0.46692,0.49701 c 6.08554,4.44882 11.36463,8.89687 17.81007,13.13222 0.13812,0.003 0.25112,-0.13723 0.25112,-0.31212 z m -2.11416,-0.29244 c -0.25757,-0.41676 -16.07839,-12.12176 -16.49174,-12.20138 -1.49495,0.88367 -2.2609,2.99009 -3.17109,4.8277 l 0.42165,0.34142 c 6.35803,2.63291 13.7516,5.21657 19.30805,7.23416 0.0341,0.004 0.004,-0.0872 -0.0669,-0.2019 z m 25.35962,-6.85207 c 1.33879,-0.52767 1.53576,-0.76105 1.2583,-1.49083 -0.29416,-0.77371 -2.13207,-3.79438 -2.4888,-4.09045 -0.41806,-0.34695 -1.06158,0.036 -3.97091,2.36283 -4.39714,3.6342 -8.47181,6.34814 -12.78876,10.09409 -0.0376,0.10643 0.4144,0.002 1.00446,-0.23254 5.93723,-2.33306 10.79002,-4.21223 16.98571,-6.6431 z m -12.52291,-13.71876 c -0.82272,-1.54427 -3.60741,-1.66234 -5.53932,-1.7609 -0.10926,0.10926 -0.46316,2.12928 -0.78645,4.48893 -0.5056,5.57937 -2.44316,13.56813 -2.00123,17.73347 2.37213,-6.65427 6.18503,-13.13176 8.327,-20.4615 z m -9.51719,20.20997 c -1.48701,-7.06476 -1.72121,-14.58856 -3.69408,-21.89194 -0.2929,-0.29488 -1.91605,0.004 -4.31383,0.79351 -1.27529,0.42007 -1.27777,0.42239 -1.16921,1.09132 3.09391,6.62153 5.10772,13.72152 8.91435,20.17483 0.14452,0 0.26277,-0.0755 0.26277,-0.16772 z m -9.76101,-19.91359 c -0.24648,-0.25639 -0.42771,-0.22201 -1.43796,0.27274 -1.76247,0.86315 -3.6671,2.17785 -3.6671,2.53127 4.01214,5.38877 7.71835,9.5695 12.2386,15.12885 0.59898,0.73871 1.11907,1.31309 1.15577,1.2764 -2.84828,-6.74446 -4.90842,-12.19796 -8.28931,-19.20926 z m 25.02594,2.56889 c -1.61762,-1.43456 -3.19617,-2.66353 -5.09009,-2.80245 -0.17208,0.1428 -0.7791,1.44347 -1.34893,2.89037 -2.00619,5.46137 -5.18738,11.99885 -6.46755,16.52048 4.638,-6.30353 8.8662,-10.45199 12.90657,-16.6084 z m -12.4322,-0.30349 c 0.22256,-1.45668 0.37686,-3.08391 0.34288,-3.61608 l -0.0618,-0.96757 c -1.98437,-0.094 -4.58993,-0.48175 -6.04334,0.39615 0.87444,7.11087 1.96041,12.63879 3.1365,20.09803 0.003,0.10875 0.084,0.0621 0.17913,-0.1036 0.95853,-5.16689 1.55982,-9.98334 2.44663,-15.80693 z"
								style="fill-opacity:1" />
							</g>
						</g>
  <rect
     style="opacity:1;fill:#000000;fill-opacity:1;stroke:#000000;stroke-width:8.41709518;stroke-linecap:round;stroke-linejoin:round;stroke-miterlimit:4;stroke-dasharray:none;stroke-opacity:1"
     id="rect8070"
     width="735.67737"
     height="1.5041654"
     x="4.2085476"
     y="262.51562" />
</svg>
